<?xml version="1.0" standalone="no"?>
<!DOCTYPE svg PUBLIC "-//W3C//DTD SVG 1.1//EN" "http://www.w3.org/Graphics/SVG/1.1/DTD/svg11.dtd" >
<svg xmlns="http://www.w3.org/2000/svg">
<metadata></metadata>
<defs>
<font id="apercu_prodemibold_italic" horiz-adv-x="587" >
<font-face units-per-em="2048" ascent="1638" descent="-410" />
<missing-glyph horiz-adv-x="464" />
<glyph horiz-adv-x="0" />
<glyph horiz-adv-x="0" />
<glyph unicode="&#xd;" horiz-adv-x="681" />
<glyph unicode=" "  horiz-adv-x="464" />
<glyph unicode="&#x09;" horiz-adv-x="464" />
<glyph unicode="&#xa0;" horiz-adv-x="464" />
<glyph unicode="!" horiz-adv-x="737" d="M119 143q0 66 45 111q43 43 110 43q68 0 111 -43q43 -46 43 -111t-43 -108t-111 -43q-67 0 -110 43q-45 42 -45 110v-2zM244 451l135 981h291l-244 -981h-182z" />
<glyph unicode="&#x22;" horiz-adv-x="956" d="M254 961l35 489h266l-158 -489h-143zM604 961l35 489h266l-157 -489h-144z" />
<glyph unicode="#" horiz-adv-x="1435" d="M76 412l20 168h271l88 274h-242l20 168h277l135 412h178l-135 -412h256l135 412h178l-135 -412h238l-21 -168h-272l-88 -274h244l-21 -168h-278l-133 -412h-179l133 412h-256l-133 -412h-178l133 412h-235zM545 580h256l88 274h-256z" />
<glyph unicode="$" horiz-adv-x="1091" d="M33 383l188 106q12 -133 78 -215q67 -79 180 -79q106 0 174 59q70 61 70 168q0 83 -53 139t-162 109q-283 138 -283 377q0 170 103 276q99 105 268 123l35 172h205l-37 -191q79 -29 141 -94q59 -62 84 -135l-201 -104q-50 152 -184 149q-80 0 -127 -47q-51 -48 -51 -131 q0 -40 16 -80q18 -37 60 -65q53 -39 71 -50q10 -6 90 -47q135 -63 197 -143q66 -81 66 -227q0 -229 -144 -349q-116 -101 -297 -116l-33 -172h-202l32 184q-124 38 -202 141q-79 104 -82 242z" />
<glyph unicode="%" horiz-adv-x="1812" d="M123 1071q0 171 113 275q108 102 280 102q124 0 203 -82q80 -80 80 -197q0 -156 -115 -274q-93 -100 -283 -100q-121 0 -200 79q-78 84 -78 199v-2zM127 29l1389 1474l104 -100l-1391 -1475zM303 1092q0 -58 35 -93q33 -36 92 -36q77 0 131 51q53 53 53 135q0 55 -32 92 q-34 37 -95 37q-80 0 -131 -51q-53 -53 -53 -135zM950 258q0 168 115 277q108 102 283 102q118 0 200 -82q78 -81 78 -199q0 -168 -113 -272q-105 -102 -282 -102q-124 0 -203 79q-78 84 -78 199v-2zM1135 281q0 -55 32 -95q34 -34 95 -34q80 0 131 51q53 53 53 135 q0 54 -35 92q-34 37 -92 37q-80 0 -131 -51q-53 -50 -53 -135z" />
<glyph unicode="&#x26;" horiz-adv-x="1296" d="M59 375q0 312 371 493q-70 122 -70 226q0 161 109 264q106 92 272 92q135 0 213 -78q78 -72 78 -190q0 -134 -90 -221q-85 -88 -252 -166l197 -320q70 103 135 244l117 -168q-83 -162 -156 -250l180 -301h-239l-78 135q-151 -154 -402 -151q-167 0 -274 104 q-109 103 -109 287h-2zM268 391q0 -95 58 -153t145 -58q153 0 274 133l-233 396q-242 -120 -242 -316zM555 1085v2q0 -66 43 -145q25 11 63 28.5t44 20.5q31 16 81 66q41 44 41 94q0 111 -112 111q-70 0 -115 -48t-45 -129z" />
<glyph unicode="'" horiz-adv-x="602" d="M254 961l35 489h262l-158 -489h-139z" />
<glyph unicode="(" horiz-adv-x="600" d="M92 434q0 314 109 602q106 285 309 500h211q-416 -512 -416 -1114q0 -312 98 -524h-210q-99 237 -99 536h-2z" />
<glyph unicode=")" horiz-adv-x="600" d="M-133 -102l2 2q416 509 416 1114q0 316 -99 522h211q96 -224 99 -537q0 -310 -109 -602q-108 -289 -309 -499h-211z" />
<glyph unicode="*" horiz-adv-x="1007" d="M168 1102l80 174l231 -80l51 254h181l-52 -254l261 80l34 -174l-274 -80l111 -207l-162 -104l-113 204l-188 -204l-138 104l203 207z" />
<glyph unicode="+" horiz-adv-x="1185" d="M92 555l37 188h360l70 361h191l-70 -361h362l-36 -188h-363l-72 -362h-190l72 362h-361z" />
<glyph unicode="," horiz-adv-x="731" d="M-12 -270l243 532h293l-379 -532h-157z" />
<glyph unicode="-" horiz-adv-x="999" d="M104 555l35 188h723l-35 -188h-723z" />
<glyph unicode="." horiz-adv-x="595" d="M47 141q0 64 43 107q48 45 109 45t106 -45q43 -43 43 -107q0 -63 -43 -106q-42 -45 -106 -45t-109 45q-43 43 -43 106z" />
<glyph unicode="/" horiz-adv-x="1075" d="M-184 -102l1200 1638h231l-1202 -1638h-229z" />
<glyph unicode="0" horiz-adv-x="1216" d="M66 502q0 112 20 252q19 114 76 254q52 126 129 225q80 99 192 158q118 59 265 59q191 0 294 -133q107 -135 107 -385q0 -114 -23 -252q-21 -126 -73 -254q-51 -123 -127 -225q-74 -96 -195 -158q-118 -59 -262 -59q-188 0 -297 133q-104 134 -104 385h-2zM285 526l4 2 q0 -185 53 -264q53 -84 168 -84q109 0 192 74q84 72 134 188q47 116 71 234q25 122 25 227q0 179 -55 264q-53 84 -168 84q-110 0 -195 -73q-83 -72 -133 -189q-47 -107 -72 -231q-24 -120 -24 -232z" />
<glyph unicode="1" horiz-adv-x="829" d="M143 967l45 229l445 238h90l-281 -1434h-219l219 1126z" />
<glyph unicode="2" horiz-adv-x="1124" d="M-23 0l19 90l663 696q83 89 119 150q35 55 35 147q0 81 -41 125q-44 47 -119 47q-167 0 -229 -221l-213 39q43 172 166 277q118 100 303 100q172 0 262 -90q96 -93 96 -252q0 -219 -180 -408l-475 -503h510l-37 -197h-879z" />
<glyph unicode="3" horiz-adv-x="1128" d="M14 395l215 39q9 -114 70 -184q63 -72 162 -72q130 0 203 86q67 85 67 225q0 122 -59 181q-60 63 -158 63q-70 0 -129 -26l-96 120l368 408h-450l37 197h805l-15 -74l-440 -475q27 6 57 6q130 0 217 -96q84 -101 84 -279q0 -229 -102 -358q-135 -172 -416 -172 q-185 0 -297 118q-114 120 -123 293z" />
<glyph unicode="4" horiz-adv-x="1171" d="M12 287l19 98l788 1049h244l-186 -951h161l-37 -196h-161l-58 -287h-219l58 287h-609zM336 483h321l117 600z" />
<glyph unicode="5" horiz-adv-x="1120" d="M33 340q0 29 2 37l209 37v-23q0 -99 57 -153q58 -58 156 -58q123 0 207 96q79 94 79 254q0 107 -53 166q-52 58 -151 58q-167 0 -303 -148l-138 29l228 799h727l-37 -197h-539l-110 -358q85 71 221 71q180 0 278 -98q99 -102 99 -303q0 -253 -148 -410 q-146 -155 -397 -155q-169 0 -277 102t-108 254h-2z" />
<glyph unicode="6" horiz-adv-x="1150" d="M57 369q0 176 136 356l548 723h256l-417 -539q15 6 38 6q169 0 273 -104q104 -107 104 -293q0 -240 -143 -389q-142 -145 -381 -145q-187 0 -299 106q-113 110 -113 281zM279 395q0 -97 53 -159q57 -60 141 -60q129 0 217 88q84 87 84 225q0 120 -53 173q-55 55 -141 55 q-129 0 -215 -92q-86 -95 -86 -228v-2z" />
<glyph unicode="7" horiz-adv-x="1026" d="M43 0l737 1237h-565l39 197h840l-21 -99l-794 -1335h-236z" />
<glyph unicode="8" horiz-adv-x="1132" d="M45 367q0 131 78 241q76 108 207 164q-106 97 -109 258q0 194 154 318q123 102 332 102q159 0 251 -92q93 -93 93 -264q0 -111 -70 -203q-72 -94 -156 -123q66 -37 109 -111q45 -79 45 -186q0 -208 -121 -338q-140 -152 -414 -149q-182 0 -290 102q-109 103 -109 281z M260 387q0 -89 57 -149q60 -60 146 -60q127 0 211 72q86 77 86 207q0 96 -55 145q-54 51 -148 51q-124 0 -207 -71q-86 -71 -86 -193zM430 1032q0 -81 45 -129q46 -49 117 -49q105 0 176 68q68 65 68 165q0 82 -48 127q-49 46 -118 46q-96 0 -168 -66t-72 -160v-2z" />
<glyph unicode="9" horiz-adv-x="1150" d="M158 -16l420 536q-12 -4 -39 -4q-168 0 -275 107q-102 108 -102 290q0 240 143 392q142 145 381 145q186 0 299 -107t113 -280q0 -183 -133 -356l-551 -723h-256zM379 940q0 -113 53 -172q55 -55 143 -55q131 0 216 94q86 92 86 225q0 99 -54 162q-56 59 -141 59 q-130 0 -217 -90q-84 -84 -84 -223h-2z" />
<glyph unicode=":" horiz-adv-x="632" d="M74 141q0 65 45 107q45 45 106 45q62 0 107 -45t45 -107q0 -61 -45 -106q-42 -45 -107 -45q-64 0 -106 45q-45 42 -45 106zM203 803q0 64 45 106q43 43 106 43q64 0 107 -43q45 -45 45 -106t-45 -109q-43 -43 -107 -43q-63 0 -106 43q-45 45 -45 109z" />
<glyph unicode=";" horiz-adv-x="632" d="M-133 -270l244 532h292l-378 -532h-158zM203 803q0 64 45 106q43 43 106 43q64 0 107 -43q45 -45 45 -106t-45 -109q-43 -43 -107 -43q-63 0 -106 43q-45 45 -45 109z" />
<glyph unicode="&#x3c;" horiz-adv-x="952" d="M72 528v213l745 394v-228l-518 -272l518 -273v-227z" />
<glyph unicode="=" horiz-adv-x="1210" d="M162 371v188h850v-188h-850zM162 711v188h850v-188h-850z" />
<glyph unicode="&#x3e;" horiz-adv-x="952" d="M135 135v227l518 273l-518 272v228l746 -394v-213z" />
<glyph unicode="?" horiz-adv-x="925" d="M139 1139q49 142 164 225q119 84 272 84q155 0 238 -74q82 -70 82 -192q0 -197 -211 -291l-238 -109q-40 -17 -55 -26q-22 -15 -39 -37q-16 -29 -16 -57q0 -36 20 -56t54 -20q45 0 73 28q32 32 62 93l162 -54q-55 -130 -129 -180q-76 -49 -197 -49q-103 0 -168 59 q-66 63 -66 168q0 180 230 279l192 82q64 28 90 61q29 36 29 94q0 54 -33 80q-36 31 -90 31q-151 0 -227 -186l-193 49zM164 141q0 66 45 111q43 43 110 43q68 0 111 -43q43 -46 43 -111t-43 -108t-111 -43q-67 0 -110 43q-45 42 -45 110v-2z" />
<glyph unicode="@" horiz-adv-x="1863" d="M111 541q0 432 260 680q256 247 673 247q305 0 504 -178q201 -180 201 -493q0 -259 -107 -418q-106 -158 -329 -158q-73 0 -129 39q-61 40 -82 98q-107 -137 -291 -137q-154 0 -240 92q-86 95 -86 254q0 219 133 355q132 135 349 135q84 0 149 -29q66 -28 90 -74l35 88 h156l-109 -503q-12 -49 -12 -72q0 -57 80 -57q190 0 190 352q0 254 -139 387q-142 133 -393 133q-295 0 -490 -195q-192 -195 -192 -526q0 -270 157 -418q159 -147 406 -147q143 0 272 29q112 26 287 108l59 -184q-198 -84 -317 -111q-133 -31 -315 -31q-333 0 -547 199 q-217 199 -217 535h-6zM686 586l2 2q0 -79 41 -129q41 -47 121 -47q115 0 192 80q74 83 74 202q0 86 -43 129q-42 45 -121 45q-110 0 -188 -84q-78 -87 -78 -198z" />
<glyph unicode="A" horiz-adv-x="1216" d="M-125 0l772 1434h219l219 -1434h-233l-47 356h-508l-186 -356h-236zM408 569h372l-75 580z" />
<glyph unicode="B" horiz-adv-x="1263" d="M61 0l283 1434h473q167 0 270 -86t103 -240q0 -226 -209 -330q68 -27 115 -102q45 -76 45 -187q0 -242 -142 -366q-141 -123 -364 -123h-574zM334 213h276q141 0 219 63q82 61 82 191q0 188 -209 188h-282zM461 868l262 -2q99 0 168 54q67 52 67 153q0 148 -167 148h-263 z" />
<glyph unicode="C" horiz-adv-x="1382" d="M59 565q0 173 58 328q57 161 157 281q103 124 263 198q161 76 348 76q217 0 342 -125q124 -124 139 -319l-221 -56q-24 147 -94 217q-73 70 -205 70q-163 0 -293 -100q-128 -98 -193 -244q-63 -141 -63 -305q0 -197 88 -295q89 -96 258 -96q136 0 227 67q96 74 177 215 l202 -61q-101 -222 -258 -328q-155 -104 -387 -104q-233 0 -387 157t-154 426z" />
<glyph unicode="D" horiz-adv-x="1376" d="M61 0l281 1432h383q259 0 416 -154q155 -158 155 -455q0 -357 -227 -590t-582 -233h-426zM332 211h139q266 0 428 168q166 166 166 424q0 416 -401 416h-140z" />
<glyph unicode="E" horiz-adv-x="1161" d="M61 0l281 1434h838l-43 -213h-611l-67 -353h489l-41 -213h-489l-86 -442h631l-43 -213h-859z" />
<glyph unicode="F" horiz-adv-x="1134" d="M61 0l279 1434h850l-43 -213h-623l-71 -371h497l-41 -213h-497l-125 -637h-226z" />
<glyph unicode="G" horiz-adv-x="1433" d="M61 555q0 248 95 449q92 198 280 323q192 123 432 123q214 0 346 -123q130 -124 142 -315l-219 -64q-30 157 -103 221q-74 68 -205 68q-245 0 -389 -188q-143 -186 -143 -457q0 -183 92 -289q91 -104 254 -104q149 0 252 90q106 87 156 235h-281l39 201h504l-142 -725 h-190l12 178q-143 -192 -393 -192h-8q-226 0 -377 151q-152 155 -152 420z" />
<glyph unicode="H" horiz-adv-x="1425" d="M61 0l281 1434h227l-110 -562h567l111 562h227l-281 -1434h-227l129 659h-567l-129 -659h-228z" />
<glyph unicode="I" horiz-adv-x="630" d="M61 0l281 1434h227l-280 -1434h-228z" />
<glyph unicode="J" horiz-adv-x="1124" d="M-4 379l225 47q0 -105 43 -166q42 -63 129 -63q209 0 262 258l191 979h227l-205 -1033q-47 -231 -186 -329q-122 -88 -317 -88q-168 0 -269 116q-100 115 -100 279z" />
<glyph unicode="K" horiz-adv-x="1257" d="M61 0l281 1434h227l-106 -543l569 543h293l-688 -646l469 -788h-279l-401 702l-137 -702h-228z" />
<glyph unicode="L" horiz-adv-x="1046" d="M61 0l279 1434h227l-237 -1221h606l-43 -213h-832z" />
<glyph unicode="M" horiz-adv-x="1622" d="M61 0l281 1434h268l158 -955l504 955h289l-281 -1434h-227l180 934l-440 -803h-172l-144 836l-188 -967h-228z" />
<glyph unicode="N" horiz-adv-x="1449" d="M61 0l281 1434h244l375 -1033l200 1033h228l-281 -1434h-244l-375 1028l-200 -1028h-228z" />
<glyph unicode="O" horiz-adv-x="1488" d="M63 567l3 2q0 441 290 697q211 184 525 184q224 0 376 -152q154 -154 154 -432q0 -439 -291 -696q-210 -186 -524 -186q-225 0 -379 151q-154 154 -154 432zM299 590q0 -185 90 -289q91 -102 248 -102q228 0 381 182q158 196 158 469q0 181 -91 289q-90 100 -245 100 q-232 0 -381 -180q-158 -196 -158 -469h-2z" />
<glyph unicode="P" horiz-adv-x="1210" d="M61 0l281 1434h477q184 0 291 -93q107 -91 107 -264q0 -238 -150 -364q-151 -127 -403 -127h-261l-114 -586h-228zM444 799h277q113 0 186 67q76 70 76 181q0 174 -184 174h-273z" />
<glyph unicode="Q" horiz-adv-x="1488" d="M61 567v2q0 438 291 697q211 184 527 184q224 0 376 -152t152 -432q0 -354 -197 -598l111 -133l-180 -151l-105 125q-181 -125 -442 -125q-225 0 -379 151q-154 154 -154 432zM299 590v2q0 -187 88 -291q90 -100 248 -100q151 0 266 78l-139 174l180 149l123 -149 q106 169 106 385v12q0 186 -90 289q-87 100 -243 100q-232 0 -381 -180q-158 -192 -158 -469z" />
<glyph unicode="R" horiz-adv-x="1243" d="M61 0l279 1434h481q185 0 283 -88q96 -90 96 -242q0 -181 -104 -297q-104 -113 -260 -148l282 -659h-258l-274 643h-170l-127 -643h-228zM455 854h256q110 0 182 57t72 156q0 71 -45 113q-44 41 -123 41h-273z" />
<glyph unicode="S" horiz-adv-x="1091" d="M33 383l190 111q12 -141 78 -218q65 -77 180 -77q108 0 174 57q70 64 70 170q0 81 -53 137q-51 54 -162 111q-283 135 -283 377q0 190 123 295q122 104 324 104q127 0 221 -76q96 -77 129 -176l-201 -104q-49 149 -179 149h-5q-80 0 -127 -47q-51 -48 -51 -131 q0 -40 16 -80q18 -37 60 -65q53 -39 71 -50q10 -6 90 -47q135 -63 197 -143q66 -81 66 -227q0 -229 -144 -349q-141 -120 -368 -120h-11q-169 0 -284 112t-121 287z" />
<glyph unicode="T" horiz-adv-x="1050" d="M115 1221l43 213h1009l-43 -213h-391l-237 -1221h-228l238 1221h-391z" />
<glyph unicode="U" horiz-adv-x="1382" d="M129 391q0 46 18 148l175 897h227l-180 -928q-11 -72 -13 -96q0 -213 234 -213q135 0 221 77q90 77 117 230l180 928h227l-178 -918q-59 -293 -207 -412q-150 -120 -399 -120q-196 0 -307 102q-113 104 -113 305h-2z" />
<glyph unicode="V" horiz-adv-x="1179" d="M117 1434h237l138 -1119l579 1119h246l-762 -1434h-229z" />
<glyph unicode="W" horiz-adv-x="1839" d="M172 1434h238l41 -1102l446 950h211l94 -950l481 1102h238l-655 -1434h-232l-100 891l-432 -891h-232z" />
<glyph unicode="X" horiz-adv-x="1146" d="M-117 0l598 782l-245 652h241l166 -449l336 449h262l-514 -670l289 -764h-244l-211 559l-416 -559h-262z" />
<glyph unicode="Y" horiz-adv-x="1024" d="M106 1434h242l166 -596l399 596h252l-575 -820l-121 -614h-227l120 614z" />
<glyph unicode="Z" horiz-adv-x="1161" d="M-51 0l22 111l850 1110h-614l43 213h926l-23 -111l-844 -1110h664l-43 -213h-981z" />
<glyph unicode="[" horiz-adv-x="688" d="M41 -102l315 1638h428l-36 -193h-222l-243 -1253h221l-37 -192h-426z" />
<glyph unicode="\" horiz-adv-x="980" d="M98 1536h215l576 -1638h-215z" />
<glyph unicode="]" horiz-adv-x="688" d="M-41 -102l35 192h221l244 1253h-221l36 193h428l-317 -1638h-426z" />
<glyph unicode="^" horiz-adv-x="1210" d="M137 846l391 588h181l391 -588h-211l-271 399l-270 -399h-211z" />
<glyph unicode="_" horiz-adv-x="1011" d="M-96 -188l35 188h911l-35 -188h-911z" />
<glyph unicode="`" horiz-adv-x="440" d="M106 1450h293l84 -303h-168z" />
<glyph unicode="a" horiz-adv-x="1220" d="M47 401q0 282 156 467q154 183 426 183q84 0 151 -37q68 -38 101 -94l18 112h215l-196 -1032h-218l25 121q-114 -135 -299 -135q-179 0 -276 118q-99 120 -99 297h-4zM279 453q0 -134 55 -207q57 -76 153 -76q158 0 244 129q90 128 90 301q0 258 -215 258 q-152 0 -237 -123q-88 -122 -88 -282h-2z" />
<glyph unicode="b" horiz-adv-x="1236" d="M47 0l279 1450h215l-103 -530q119 131 295 131q167 0 273 -115q104 -116 104 -326q0 -268 -145 -444q-146 -180 -414 -180q-85 0 -162 41q-79 42 -102 92l-25 -119h-215zM334 426q0 -114 59 -182q58 -70 144 -70q155 0 247 129q93 134 93 295q0 131 -54 197 q-53 65 -151 65q-147 0 -242 -127q-94 -128 -94 -307h-2z" />
<glyph unicode="c" horiz-adv-x="1120" d="M49 426q0 164 70 301q66 138 209 231q145 91 321 91q164 0 258 -76q99 -77 129 -211l-200 -80q-55 176 -222 176q-153 0 -243 -127q-92 -127 -92 -297q0 -126 53 -194q52 -70 149 -70q167 0 287 188l176 -79q-102 -164 -217 -230q-113 -65 -283 -65q-183 0 -286 118 q-107 119 -107 322z" />
<glyph unicode="d" horiz-adv-x="1263" d="M51 395l2 -2q0 280 154 469q152 187 422 187q183 0 264 -125l98 526h215l-280 -1450h-215l22 119q-47 -59 -129 -96q-77 -39 -178 -39q-179 0 -276 112q-99 111 -99 299zM285 430q0 -119 57 -188q57 -72 152 -72q112 0 192 74q81 75 115 168q33 101 33 188q0 126 -56 191 q-53 65 -151 65q-157 0 -248 -131q-94 -128 -94 -293v-2z" />
<glyph unicode="e" horiz-adv-x="1148" d="M47 422q0 246 170 434q170 191 432 191q189 0 291 -111q104 -110 104 -285q0 -55 -10 -104l-16 -92h-746q-6 -35 -6 -68q0 -95 58 -156q55 -61 163 -61q175 0 310 188l161 -86q-103 -155 -221 -223q-116 -65 -295 -65q-186 0 -290 122q-105 123 -105 318v-2zM311 633h516 q0 102 -53 164q-52 61 -162 61q-103 0 -182 -61q-79 -64 -119 -164z" />
<glyph unicode="f" horiz-adv-x="706" d="M45 0l164 844h-133l37 188h133l14 76q62 342 399 342q98 0 168 -37l-77 -180q-53 29 -107 29q-141 0 -168 -150l-14 -80h225l-37 -188h-225l-164 -844h-215z" />
<glyph unicode="g" horiz-adv-x="1069" d="M-53 -141l2 4q0 157 131 258q-41 55 -41 131q0 136 176 237q-43 67 -43 152q0 174 119 293q117 117 307 117q124 0 201 -45l198 102l70 -150l-162 -79q20 -47 23 -119q0 -187 -119 -297q-119 -107 -311 -107q-87 0 -174 35q-74 -38 -74 -98q0 -76 92 -76h225 q141 0 215 -65q78 -63 78 -199q0 -197 -143 -291q-146 -96 -371 -96q-182 0 -291 80q-108 80 -108 213zM160 -92v-2q0 -150 209 -150q268 0 268 166q0 117 -150 117h-163q-56 0 -105 6q-59 -45 -59 -137zM383 680l2 -2q0 -68 37 -105q33 -36 96 -36q83 0 141 55 q58 58 58 137q0 71 -37 105q-36 36 -96 36q-85 0 -144 -53q-57 -54 -57 -137z" />
<glyph unicode="h" horiz-adv-x="1204" d="M49 0l283 1450h215l-115 -596q157 195 373 195q116 0 184 -62q70 -61 70 -168q0 -45 -10 -94l-142 -725h-215l129 672q8 50 8 71q0 115 -124 115q-106 0 -213 -113q-107 -116 -144 -309l-84 -436h-215z" />
<glyph unicode="i" d="M49 0l201 1032h215l-201 -1032h-215zM266 1323q0 61 43 107q45 45 105 45q59 0 104 -45q43 -43 43 -107t-41 -102q-43 -43 -104 -43q-64 0 -107 43q-41 41 -41 102h-2z" />
<glyph unicode="j" d="M-184 -227v-2q115 27 182 84q62 53 86 170l195 1005h215l-213 -1098q-35 -173 -146 -256q-115 -86 -301 -110zM295 1321q0 63 43 106q46 46 104 46q59 0 105 -46q43 -46 43 -106q0 -61 -41 -102q-43 -43 -107 -43q-61 0 -104 43q-41 38 -41 102h-2z" />
<glyph unicode="k" horiz-adv-x="1064" d="M49 0l281 1450h215l-156 -819l397 401h281l-492 -479l328 -553h-264l-279 494l-96 -494h-215z" />
<glyph unicode="l" horiz-adv-x="624" d="M66 0l280 1450h215l-280 -1450h-215z" />
<glyph unicode="m" horiz-adv-x="1748" d="M49 0l199 1032h215l-33 -166q61 86 145 133q93 52 187 52q206 0 244 -199q140 199 350 199q128 0 188 -60t60 -174q0 -23 -11 -76l-143 -739h-213l131 692q6 37 6 49q0 119 -125 119q-98 0 -184 -121q-87 -122 -127 -325l-82 -416h-215l133 692q6 40 6 49q0 119 -110 119 q-93 0 -187 -110q-93 -113 -127 -283l-92 -467h-215z" />
<glyph unicode="n" horiz-adv-x="1185" d="M49 0l201 1032h215l-33 -164q140 180 352 183q117 0 187 -64q67 -64 67 -168q0 -45 -12 -104l-137 -715h-215l129 672q8 54 8 65q0 123 -121 123q-102 0 -203 -110q-97 -106 -133 -281l-90 -469h-215z" />
<glyph unicode="o" horiz-adv-x="1204" d="M51 426q0 284 162 446q174 174 442 177q194 0 312 -127q116 -128 116 -320q0 -283 -161 -444q-171 -174 -445 -174q-194 0 -309 127q-117 126 -117 317v-2zM281 446q0 -132 61 -202q62 -74 164 -74q150 0 252 129q94 122 94 283q0 129 -61 202q-62 74 -162 74 q-150 0 -252 -129q-94 -119 -94 -280z" />
<glyph unicode="p" horiz-adv-x="1249" d="M-29 -418l281 1450h215l-25 -119q44 55 129 97q79 39 181 39q180 0 274 -113q98 -113 98 -299q0 -281 -151 -467q-152 -186 -422 -186q-183 0 -264 125l-101 -527h-215zM342 432q0 -124 57 -190q56 -68 152 -68q154 0 250 131q92 133 92 295q0 119 -57 188 q-54 72 -152 72q-112 0 -190 -72q-78 -70 -115 -167q-35 -88 -35 -191z" />
<glyph unicode="q" horiz-adv-x="1214" d="M51 422l2 2q0 263 148 446q149 181 413 181q85 0 162 -41q80 -45 105 -97l22 119h215l-280 -1450h-215l102 535q-119 -131 -297 -131q-169 0 -272 112q-105 114 -105 324zM285 436q0 -129 55 -196q54 -66 152 -66q146 0 241 127q94 128 94 307q0 115 -59 183 q-59 71 -141 71q-157 0 -248 -131q-92 -130 -92 -293z" />
<glyph unicode="r" horiz-adv-x="907" d="M49 0l201 1032h215l-33 -166q136 183 340 183q66 0 127 -25l-76 -195q-54 31 -114 31q-111 0 -215 -110q-105 -108 -146 -314l-84 -436h-215z" />
<glyph unicode="s" horiz-adv-x="937" d="M23 279l180 79q15 -82 71 -135q53 -53 138 -53q73 0 116 37q41 35 41 98q0 50 -47 86q-39 34 -135 78q-207 89 -207 266q0 148 96 232q98 82 261 82q104 0 184 -45q79 -46 117 -127l-158 -119q-68 102 -166 102q-55 0 -88 -26q-33 -30 -33 -78q0 -47 35 -74 q43 -31 121 -68q44 -19 90 -47q36 -21 70 -53q41 -38 57 -82q16 -50 16 -104q0 -174 -100 -258q-106 -86 -274 -86q-163 0 -267 90q-99 83 -118 205z" />
<glyph unicode="t" horiz-adv-x="743" d="M51 844l35 186h174l53 287l240 133l-82 -420h258l-35 -186h-258l-98 -504q-6 -35 -6 -66q0 -104 110 -104q48 0 105 31l18 -183q-75 -34 -177 -34h-17q-122 0 -189 67q-65 71 -65 195q0 51 10 106l98 492h-174z" />
<glyph unicode="u" horiz-adv-x="1191" d="M96 211q0 45 15 104l139 715h215l-129 -672q-8 -36 -8 -65q0 -123 116 -123q103 0 205 111q101 110 131 280l90 469h215l-198 -1030h-215l28 164q-137 -180 -352 -180q-117 0 -184 61q-68 65 -68 168v-2z" />
<glyph unicode="v" horiz-adv-x="913" d="M51 1032h215l80 -758l371 758h227l-532 -1032h-211z" />
<glyph unicode="w" horiz-adv-x="1509" d="M104 1032h226l43 -745l327 745h211l33 -753l332 753h229l-514 -1032h-203l-36 725l-326 -725h-201z" />
<glyph unicode="x" horiz-adv-x="974" d="M-80 0l447 559l-205 473h229l119 -307l231 307h248l-397 -493l223 -539h-225l-139 356l-281 -356h-250z" />
<glyph unicode="y" horiz-adv-x="980" d="M-14 -418l254 477l-170 973h227l109 -694l360 694h235l-800 -1450h-215z" />
<glyph unicode="z" horiz-adv-x="946" d="M-23 0l15 86l569 758h-414l35 188h723l-16 -86l-563 -758h452l-35 -188h-766z" />
<glyph unicode="{" horiz-adv-x="679" d="M61 621l39 192q97 0 142 33q39 31 57 123l74 370q15 86 76 144q59 53 153 53h148l-37 -193h-51q-48 0 -68 -20q-22 -19 -31 -66l-67 -356q-18 -97 -68 -135q-45 -36 -119 -49q117 -18 117 -135q0 -37 -8 -68l-66 -338q-4 -16 -4 -33q0 -30 14 -41q15 -12 56 -12h51 l-39 -192h-147q-78 0 -115 43q-41 44 -41 114q0 3 4 39l72 371q8 54 8 65q0 50 -33 70q-30 21 -117 21z" />
<glyph unicode="|" d="M195 -102v1638h204v-1638h-204z" />
<glyph unicode="}" horiz-adv-x="679" d="M-74 -102l33 190h51q46 0 70 21q22 19 31 65l69 356q18 96 66 136q49 37 121 49q-117 18 -117 135q0 34 6 68l68 337q4 32 4 33q0 27 -17 41q-15 12 -53 12h-51l37 193h149q75 0 115 -43q39 -42 39 -115q0 -21 -4 -39l-70 -370q-8 -54 -8 -66q0 -53 33 -70 q29 -20 116 -20l-39 -190q-96 0 -141 -33q-38 -28 -57 -123l-74 -371q-18 -89 -76 -141q-58 -55 -153 -55h-148z" />
<glyph unicode="~" horiz-adv-x="1318" d="M121 649l2 -2q134 207 332 207q94 0 202 -51q115 -53 181 -53q103 0 202 96l95 -123q-135 -209 -332 -209q-89 0 -205 55q-117 54 -180 54q-103 0 -203 -97z" />
<glyph unicode="&#xa2;" horiz-adv-x="1142" d="M113 629v2q0 224 133 401q135 176 360 213l58 295h204l-57 -293q236 -43 289 -278l-203 -80q-55 178 -221 178q-150 0 -244 -129q-94 -125 -94 -297q0 -127 53 -195q51 -69 152 -69q166 0 286 188l177 -80q-83 -134 -181 -204q-87 -67 -219 -86l-55 -295h-207l57 299 q-138 35 -213 147t-75 283z" />
<glyph unicode="&#xa3;" horiz-adv-x="1150" d="M-31 125l2 -2q153 125 228 225q84 113 84 254q0 27 -4 39h-162l41 207h92q-4 37 -4 98q0 242 131 373q134 131 360 131q151 0 246 -74q96 -75 123 -211l-195 -84q-43 162 -200 162q-130 0 -195 -92q-61 -91 -61 -231q0 -29 4 -72h342l-39 -207h-285q0 -146 -51 -248 q-56 -107 -178 -192q99 57 182 57q55 0 119 -37q65 -35 102 -35q53 0 94 27q39 29 111 113l127 -125q-90 -124 -172 -172q-80 -45 -190 -45q-91 0 -175 34q-84 37 -129 37q-122 0 -249 -71z" />
<glyph unicode="&#xa5;" horiz-adv-x="1169" d="M106 289l37 188h308l26 137h-307l37 189h215l-186 631h243l148 -594l397 594h246l-439 -631h216l-37 -189h-308l-26 -137h307l-37 -188h-307l-57 -289h-226l58 289h-308z" />
<glyph unicode="&#xa8;" horiz-adv-x="671" d="M113 1333q0 55 37 92q32 35 92 35q57 0 92 -35q37 -37 37 -92q0 -54 -37 -94q-37 -37 -92 -37q-58 0 -92 37q-37 40 -37 94zM492 1333q0 56 36 92q35 35 93 35q57 0 92 -35q37 -37 37 -92q0 -54 -37 -94q-37 -37 -92 -37q-56 0 -93 37q-36 39 -36 94z" />
<glyph unicode="&#xa9;" horiz-adv-x="1843" d="M137 715q0 341 225 569q226 232 562 232q334 0 561 -230q223 -229 223 -569q0 -343 -223 -572q-229 -229 -561 -229q-337 0 -562 231q-225 228 -225 570v-2zM334 715q0 -266 164 -436q163 -175 422 -175q260 0 423 175q164 173 164 436q0 260 -164 436q-162 174 -421 174 q-262 0 -424 -174q-164 -176 -164 -436zM512 711q0 209 121 327q121 115 289 115q141 0 241 -72q103 -74 121 -202l-174 -39q-46 143 -188 143q-95 0 -156 -70q-59 -68 -59 -198q0 -133 59 -201q60 -72 156 -72q141 0 188 146l174 -39q-18 -132 -123 -205q-107 -74 -239 -74 q-169 0 -289 117q-121 118 -121 328v-4z" />
<glyph unicode="&#xab;" horiz-adv-x="1390" d="M66 565l30 152l680 413l-49 -247l-430 -254l328 -271l-43 -219zM639 565l31 152l680 413l-50 -247l-430 -254l328 -271l-43 -219z" />
<glyph unicode="&#xad;" horiz-adv-x="999" d="M104 555l35 188h723l-35 -188h-723z" />
<glyph unicode="&#xae;" horiz-adv-x="1843" d="M137 715q0 341 225 569q226 232 562 232q334 0 561 -230q223 -229 223 -569q0 -343 -223 -572q-229 -229 -561 -229q-337 0 -562 231q-225 228 -225 570v-2zM334 715q0 -266 164 -436q163 -175 422 -175q260 0 423 175q164 173 164 436q0 260 -164 436q-162 174 -421 174 q-262 0 -424 -174q-164 -176 -164 -436zM623 1151h323q137 0 209 -66q74 -65 74 -186q0 -102 -51 -162q-47 -59 -138 -78l263 -380h-201l-250 370h-51v-370h-176zM799 813h145q111 0 111 86t-111 86h-145v-172z" />
<glyph unicode="&#xb4;" horiz-adv-x="460" d="M90 1147l201 303h293l-324 -303h-170z" />
<glyph unicode="&#xb8;" horiz-adv-x="423" d="M-129 -399l295 276h166l-236 -391z" />
<glyph unicode="&#xbb;" horiz-adv-x="1390" d="M39 139l49 248l430 254l-328 270l43 219l517 -425l-31 -152zM612 139l50 248l430 254l-328 270l43 219l516 -425l-31 -152z" />
<glyph unicode="&#x192;" horiz-adv-x="894" d="M-139 -397l78 180q51 -31 116 -31q139 0 170 162l185 930h-177l37 186h174l13 53q71 367 413 367q113 0 164 -39l-78 -178q-53 29 -116 29q-142 0 -170 -162l-13 -70h228l-37 -186h-227l-181 -916q-73 -362 -415 -362q-112 0 -164 37z" />
<glyph unicode="&#x2c6;" horiz-adv-x="827" d="M133 1159l395 361h62l256 -361h-205l-113 156l-168 -156h-227z" />
<glyph unicode="&#x2da;" horiz-adv-x="421" d="M113 1335q0 91 59 150q56 59 147 59t150 -59q57 -57 57 -148q0 -86 -57 -143t-150 -57q-90 0 -147 57q-59 62 -59 143v-2zM246 1337q0 -30 20 -53q20 -20 56 -20q33 0 53 20t20 53q0 35 -20 58q-22 22 -53 22q-34 0 -56 -22q-20 -23 -20 -58z" />
<glyph unicode="&#x2dc;" horiz-adv-x="835" d="M131 1278q47 72 119 119q74 47 147 47q79 0 144 -41q67 -43 116 -43q60 0 142 82l112 -96q-50 -75 -116 -119q-74 -47 -150 -47t-143 43q-65 41 -115 41q-59 0 -141 -82z" />
<glyph unicode="&#x400;" horiz-adv-x="1161" d="M61 0l281 1434h838l-43 -213h-611l-67 -353h489l-41 -213h-489l-86 -442h631l-43 -213h-859zM561 1851h293l84 -303h-168z" />
<glyph unicode="&#x401;" horiz-adv-x="1161" d="M61 0l281 1434h838l-43 -213h-611l-67 -353h489l-41 -213h-489l-86 -442h631l-43 -213h-859zM471 1735q0 55 37 92t92 37q57 0 94 -37t37 -92q0 -59 -37 -93q-36 -36 -94 -36q-56 0 -92 36q-37 34 -37 93zM850 1735q0 55 37 92t94 37q55 0 92 -37t37 -92q0 -59 -37 -93 q-36 -36 -92 -36q-58 0 -94 36q-37 34 -37 93z" />
<glyph unicode="&#x402;" horiz-adv-x="1435" d="M115 1221l43 211h1007l-43 -213h-391l-69 -365q156 193 370 193q119 0 187 -62q69 -60 69 -168q0 -30 -10 -92l-74 -375q-35 -174 -145 -256q-120 -87 -299 -110l-21 206q120 26 185 82t86 170l43 230q8 33 8 71q0 115 -125 115q-106 0 -213 -113q-104 -110 -143 -309 l-84 -436h-228l238 1221h-391z" />
<glyph unicode="&#x403;" horiz-adv-x="1085" d="M61 0l281 1434h860l-43 -213h-633l-237 -1221h-228zM588 1548l200 303h293l-323 -303h-170z" />
<glyph unicode="&#x404;" horiz-adv-x="1388" d="M61 584q0 146 48 301q47 149 135 274q86 130 231 207q152 82 326 82q202 0 350 -121q149 -122 164 -315l-207 -51q-56 274 -309 274q-167 0 -287 -105q-121 -100 -174 -309h672l-43 -213h-668q-2 -16 -2 -71q0 -342 299 -342q126 0 231 77q112 77 177 201l204 -63 q-94 -204 -262 -316q-162 -110 -375 -110q-243 0 -374 155q-134 155 -134 445h-2z" />
<glyph unicode="&#x405;" horiz-adv-x="1091" d="M33 383l190 111q12 -141 78 -218q65 -77 180 -77q108 0 174 57q70 64 70 170q0 81 -53 137q-51 54 -162 111q-283 135 -283 377q0 190 123 295q122 104 324 104q127 0 221 -76q96 -77 129 -176l-201 -104q-50 152 -184 149q-80 0 -127 -47q-51 -48 -51 -131q0 -40 16 -80 q18 -37 60 -65q53 -39 71 -50q10 -6 90 -47q135 -63 197 -143q66 -81 66 -227q0 -229 -144 -349q-144 -123 -379 -120q-169 0 -284 112t-121 287z" />
<glyph unicode="&#x406;" horiz-adv-x="630" d="M61 0l281 1434h227l-280 -1434h-228z" />
<glyph unicode="&#x407;" horiz-adv-x="630" d="M61 0l281 1434h227l-280 -1434h-228zM188 1735q0 55 37 92t92 37q56 0 93 -37q36 -36 36 -92q0 -60 -36 -93q-36 -36 -93 -36q-56 0 -92 36q-37 34 -37 93zM567 1735q0 55 37 92t92 37q58 0 92 -37q37 -37 37 -92q0 -59 -37 -93q-33 -36 -92 -36q-56 0 -92 36 q-37 34 -37 93z" />
<glyph unicode="&#x408;" horiz-adv-x="1124" d="M-4 379l225 47q0 -105 43 -166q42 -63 129 -63q209 0 262 258l191 979h227l-205 -1033q-47 -231 -186 -329q-122 -88 -317 -88q-168 0 -269 116q-100 115 -100 279z" />
<glyph unicode="&#x409;" horiz-adv-x="1832" d="M-119 0l43 213q184 0 240 199l270 1024h701l-111 -568h295q177 0 283 -100q106 -103 106 -268q0 -239 -141 -371q-144 -129 -406 -129h-534l237 1221h-264l-219 -832q-59 -219 -168 -303q-112 -86 -332 -86zM897 213h277q136 0 217 63q84 63 84 195q0 87 -56 137 q-56 47 -159 47h-277z" />
<glyph unicode="&#x40a;" horiz-adv-x="1943" d="M61 0l281 1436h227l-112 -568h448l113 568h227l-110 -568h295q176 0 282 -100q107 -101 107 -268q0 -238 -142 -371q-144 -129 -405 -129h-535l127 655h-448l-127 -655h-228zM1008 213h276q139 0 217 63q84 63 84 195q0 88 -55 137q-56 47 -160 47h-276z" />
<glyph unicode="&#x40b;" horiz-adv-x="1435" d="M115 1221l45 213h1007l-43 -213h-391l-69 -367q157 195 370 195q119 0 187 -62q69 -60 69 -168q0 -29 -10 -94l-141 -725h-215l129 672q8 33 8 71q0 115 -125 115q-106 0 -213 -113q-104 -110 -143 -309l-84 -436h-228l238 1221h-391z" />
<glyph unicode="&#x40c;" horiz-adv-x="1257" d="M61 0l281 1434h227l-106 -543l569 543h293l-688 -646l469 -788h-279l-401 702l-137 -702h-228zM647 1548l201 303h293l-324 -303h-170z" />
<glyph unicode="&#x40d;" horiz-adv-x="1449" d="M61 0h242l780 1028l-200 -1028h225l281 1434h-242l-780 -1033l200 1033h-225zM659 1851h293l84 -303h-168z" />
<glyph unicode="&#x40e;" horiz-adv-x="1095" d="M94 -16l260 438l-223 1012h225l162 -736l438 736h236l-864 -1450h-234zM489 1794q0 6 5 41h165q-2 -4 -2 -14q0 -58 58 -58q72 0 84 72h166q-18 -100 -95 -162q-76 -61 -186 -61q-92 0 -143 51q-52 49 -52 131z" />
<glyph unicode="&#x40f;" horiz-adv-x="1427" d="M61 0l279 1434h227l-237 -1221h571l238 1221h227l-279 -1434h-399l-51 -254h-227l51 254h-400z" />
<glyph unicode="&#x410;" horiz-adv-x="1216" d="M-125 0l772 1434h219l219 -1434h-233l-47 356h-508l-186 -356h-236zM408 569h372l-75 580z" />
<glyph unicode="&#x411;" horiz-adv-x="1263" d="M61 0l281 1436h844l-43 -213h-617l-67 -355h295q176 0 282 -100q107 -101 107 -268q0 -238 -142 -371q-144 -129 -405 -129h-535zM332 213h276q136 0 217 63q84 63 84 195q0 88 -55 137q-56 47 -160 47h-276z" />
<glyph unicode="&#x412;" horiz-adv-x="1263" d="M61 0l283 1434h473q167 0 270 -86t103 -240q0 -226 -209 -330q68 -27 115 -102q45 -76 45 -187q0 -242 -142 -366q-141 -123 -364 -123h-574zM334 213h276q141 0 219 63q82 61 82 191q0 188 -209 188h-282zM461 868l262 -2q99 0 168 54q67 52 67 153q0 148 -167 148h-263 z" />
<glyph unicode="&#x413;" horiz-adv-x="1085" d="M61 0l281 1434h860l-43 -213h-633l-237 -1221h-228z" />
<glyph unicode="&#x414;" horiz-adv-x="1419" d="M-68 -254l68 467h106l443 1221h809l-238 -1221h121l-117 -467h-194l51 254h-805l-51 -254h-193zM340 213h553l194 1008h-380z" />
<glyph unicode="&#x415;" horiz-adv-x="1161" d="M61 0l281 1434h838l-43 -213h-611l-67 -353h489l-41 -213h-489l-86 -442h631l-43 -213h-859z" />
<glyph unicode="&#x416;" horiz-adv-x="1781" d="M-233 0l776 803l-463 631h285l395 -543l106 543h228l-107 -543l569 543h293l-688 -646l469 -788h-278l-402 702l-137 -702h-227l137 696l-655 -696h-301z" />
<glyph unicode="&#x417;" horiz-adv-x="1128" d="M14 395l215 39q9 -114 70 -184q63 -72 162 -72q130 0 203 86q67 85 67 225q0 122 -59 181q-60 63 -158 63q-70 0 -129 -26l-96 120l368 408h-450l37 197h805l-15 -74l-440 -475q27 6 57 6q130 0 217 -96q84 -101 84 -279q0 -229 -102 -358q-135 -172 -416 -172 q-185 0 -297 118q-114 120 -123 293z" />
<glyph unicode="&#x418;" horiz-adv-x="1449" d="M61 0l281 1434h225l-200 -1033l780 1033h242l-281 -1434h-225l200 1028l-780 -1028h-242z" />
<glyph unicode="&#x419;" horiz-adv-x="1449" d="M61 0h242l780 1028l-200 -1028h225l281 1434h-242l-780 -1033l200 1033h-225zM694 1794q0 13 4 41h166q0 -2 -1 -7t-1 -7q0 -58 60 -58q69 0 84 72h163q-18 -101 -94 -162t-182 -61q-94 0 -145 51q-52 49 -52 131h-2z" />
<glyph unicode="&#x41a;" horiz-adv-x="1257" d="M61 0l281 1434h227l-106 -543l569 543h293l-688 -646l469 -788h-279l-401 702l-137 -702h-228z" />
<glyph unicode="&#x41b;" horiz-adv-x="1318" d="M-119 0l43 213q184 0 240 197l270 1024h823l-280 -1434h-227l237 1221h-387l-219 -832q-59 -219 -168 -303q-112 -86 -332 -86z" />
<glyph unicode="&#x41c;" horiz-adv-x="1622" d="M61 0l281 1434h268l158 -955l504 955h289l-281 -1434h-227l180 934l-440 -803h-172l-144 836l-188 -967h-228z" />
<glyph unicode="&#x41d;" horiz-adv-x="1425" d="M61 0l281 1434h227l-110 -562h567l111 562h227l-281 -1434h-227l129 659h-567l-129 -659h-228z" />
<glyph unicode="&#x41e;" horiz-adv-x="1488" d="M63 567l3 2q0 441 290 697q211 184 525 184q224 0 376 -152q154 -154 154 -432q0 -439 -291 -696q-210 -186 -524 -186q-225 0 -379 151q-154 154 -154 432zM299 590q0 -185 90 -289q91 -102 248 -102q228 0 381 182q158 196 158 469q0 181 -91 289q-90 100 -245 100 q-232 0 -381 -180q-158 -196 -158 -469h-2z" />
<glyph unicode="&#x41f;" horiz-adv-x="1435" d="M61 0l281 1434h1032l-280 -1434h-228l238 1221h-578l-237 -1221h-228z" />
<glyph unicode="&#x420;" horiz-adv-x="1210" d="M61 0l281 1434h477q184 0 291 -93q107 -91 107 -264q0 -238 -150 -364q-151 -127 -403 -127h-261l-114 -586h-228zM444 799h277q113 0 186 67q76 70 76 181q0 174 -184 174h-273z" />
<glyph unicode="&#x421;" horiz-adv-x="1382" d="M59 565q0 173 58 328q57 161 157 281q103 124 263 198q161 76 348 76q217 0 342 -125q124 -124 139 -319l-221 -56q-24 147 -94 217q-73 70 -205 70q-163 0 -293 -100q-128 -98 -193 -244q-63 -141 -63 -305q0 -197 88 -295q89 -96 258 -96q136 0 227 67q96 74 177 215 l202 -61q-101 -222 -258 -328q-155 -104 -387 -104q-233 0 -387 157t-154 426z" />
<glyph unicode="&#x422;" horiz-adv-x="1050" d="M115 1221l43 213h1009l-43 -213h-391l-237 -1221h-228l238 1221h-391z" />
<glyph unicode="&#x423;" horiz-adv-x="1095" d="M94 -16l260 438l-223 1012h225l162 -736l438 736h236l-864 -1450h-234z" />
<glyph unicode="&#x424;" horiz-adv-x="1667" d="M96 639v2q0 284 199 465q200 182 502 182h12l29 148h225l-29 -148h8q201 0 342 -135q142 -136 142 -356q0 -282 -201 -465q-197 -185 -502 -185h-12l-29 -147h-225l31 147h-8q-200 0 -342 136t-142 356zM326 659q0 -156 69 -237q72 -84 211 -84h17l149 762h-16 q-198 0 -314 -119q-116 -122 -116 -322zM848 340l14 -2q196 0 314 121q116 119 116 319q0 156 -69 240q-72 84 -209 84h-19z" />
<glyph unicode="&#x425;" horiz-adv-x="1146" d="M-117 0l598 782l-245 652h241l166 -449l336 449h262l-514 -670l289 -764h-244l-211 559l-416 -559h-262z" />
<glyph unicode="&#x426;" horiz-adv-x="1419" d="M61 0l279 1434h227l-237 -1221h563l237 1221h228l-238 -1221h146l-125 -467h-195l51 254h-936z" />
<glyph unicode="&#x427;" horiz-adv-x="1347" d="M166 768q0 87 16 158l99 506h227l-96 -490q-13 -67 -13 -108q0 -104 52 -162q51 -60 147 -60q181 0 326 136l135 686h225l-278 -1434h-230l101 504q-159 -102 -353 -105q-158 0 -260 97q-98 94 -98 272z" />
<glyph unicode="&#x428;" horiz-adv-x="2031" d="M61 0l281 1434h227l-237 -1221h473l237 1221h228l-238 -1221h473l238 1221h227l-280 -1434h-1629z" />
<glyph unicode="&#x429;" horiz-adv-x="2031" d="M61 0l281 1434h227l-237 -1221h473l237 1221h228l-238 -1221h473l238 1221h227l-239 -1221h147l-125 -467h-194l51 254h-1549z" />
<glyph unicode="&#x42a;" horiz-adv-x="1345" d="M49 1221l43 215h477l-110 -568h295q176 0 282 -100q107 -101 107 -268q0 -238 -142 -371q-144 -129 -405 -129h-535l240 1221h-252zM332 213h276q136 0 217 63q84 63 84 195q0 88 -55 137q-56 47 -160 47h-276z" />
<glyph unicode="&#x42b;" horiz-adv-x="1863" d="M61 0l283 1436h225l-110 -568h295q176 0 282 -100q107 -101 107 -268q0 -238 -142 -371q-144 -129 -405 -129h-535zM332 213h276q136 0 217 63q84 63 84 195q0 88 -55 137q-56 47 -160 47h-276zM1307 0l280 1450h215l-280 -1450h-215z" />
<glyph unicode="&#x42c;" horiz-adv-x="1263" d="M61 0l281 1436h227l-110 -568h295q176 0 282 -100q107 -101 107 -268q0 -238 -142 -371q-144 -129 -405 -129h-535zM332 213h276q136 0 217 63q84 63 84 195q0 88 -55 137q-56 47 -160 47h-276z" />
<glyph unicode="&#x42d;" horiz-adv-x="1394" d="M63 420l205 49q56 -274 312 -274q167 0 286 104q120 102 172 309h-669l43 213h665q2 16 2 72q0 342 -299 342q-118 0 -231 -78q-107 -74 -174 -201l-205 64q94 204 260 317q166 111 377 111q243 0 375 -156q133 -154 133 -444q0 -159 -45 -301q-51 -156 -133 -279 q-91 -130 -234 -207q-139 -77 -323 -77q-206 0 -353 118q-152 122 -164 318z" />
<glyph unicode="&#x42e;" horiz-adv-x="2109" d="M61 0l279 1434h225l-119 -611h267q68 273 260 441q207 186 524 186q222 0 379 -154q154 -154 154 -432q0 -438 -291 -694q-210 -186 -527 -186q-223 0 -374 151q-154 154 -154 432v43h-276l-119 -610h-228zM918 588q0 -189 90 -289q88 -102 243 -102q231 0 381 182 q160 195 160 469q0 182 -90 289q-90 100 -248 100q-229 0 -381 -180q-155 -192 -155 -469z" />
<glyph unicode="&#x42f;" horiz-adv-x="1298" d="M-106 0l542 659q-93 40 -155 123q-60 82 -60 199q0 205 144 328q143 125 358 125h514l-281 -1434h-227l127 643h-156l-522 -643h-284zM457 1014q0 -158 168 -158h272l70 365h-283q-98 0 -162 -64q-63 -60 -63 -141z" />
<glyph unicode="&#x430;" horiz-adv-x="1220" d="M47 401q0 282 156 467q154 183 426 183q84 0 151 -37q68 -38 101 -94l18 112h215l-196 -1032h-218l25 121q-114 -135 -299 -135q-179 0 -276 118q-99 120 -99 297h-4zM279 453q0 -134 55 -207q57 -76 153 -76q158 0 244 129q90 128 90 301q0 258 -215 258 q-152 0 -237 -123q-88 -122 -88 -282h-2z" />
<glyph unicode="&#x431;" horiz-adv-x="1189" d="M49 479q0 80 21 197q44 217 108 366q65 151 154 234q83 80 186 119q98 37 225 37h84q118 0 172 96h136q-35 -157 -111 -221q-79 -64 -231 -64h-84q-278 0 -363 -303q138 106 332 109q183 0 287 -125q102 -126 102 -330q0 -252 -172 -430q-168 -180 -432 -180 q-182 0 -295 131q-117 132 -117 368zM254 465v2q0 -137 63 -215q63 -82 170 -82q158 0 254 113q97 114 97 290q0 123 -62 203q-58 82 -170 82q-151 0 -254 -121q-98 -119 -98 -272z" />
<glyph unicode="&#x432;" horiz-adv-x="1062" d="M49 0l199 1030h387q138 0 213 -63q76 -64 76 -176q0 -77 -41 -136q-38 -54 -109 -94q115 -62 115 -219q0 -146 -121 -246q-119 -96 -287 -96h-432zM299 186h166q92 0 151 35q62 38 62 113q0 115 -164 115h-166zM387 637h158q69 0 117 31q47 27 47 84q0 44 -35 65 q-36 25 -90 25h-156z" />
<glyph unicode="&#x433;" horiz-adv-x="903" d="M49 0l199 1032h665l-34 -188h-451l-164 -844h-215z" />
<glyph unicode="&#x434;" horiz-adv-x="1175" d="M-86 -233l55 421h72l305 844h711l-166 -844h72l-107 -421h-194l47 233h-555l-48 -233h-192zM244 188h432l129 656h-322z" />
<glyph unicode="&#x435;" horiz-adv-x="1148" d="M47 422q0 246 170 434q170 191 432 191q189 0 291 -111q104 -110 104 -285q0 -55 -10 -104l-16 -92h-746q-6 -35 -6 -68q0 -95 58 -156q55 -61 163 -61q175 0 310 188l161 -86q-103 -155 -221 -223q-116 -65 -295 -65q-186 0 -290 122q-105 123 -105 318v-2zM311 633h516 q0 102 -53 164q-52 61 -162 61q-103 0 -182 -61q-79 -64 -119 -164z" />
<glyph unicode="&#x436;" horiz-adv-x="1478" d="M-197 0l568 565l-344 467h266l291 -409l80 409h215l-76 -401l397 401h281l-492 -479l328 -553h-264l-279 494l-96 -494h-215l94 489l-467 -489h-287z" />
<glyph unicode="&#x437;" horiz-adv-x="868" d="M2 287l209 30q3 -68 45 -110q38 -41 104 -41q74 0 123 49q47 53 47 129q0 147 -122 150q-48 0 -93 -25l-84 123l244 258h-309l35 182h610l-10 -65l-322 -328h31q102 0 164 -68q61 -70 61 -198q0 -169 -110 -279t-277 -110q-155 0 -242 84q-92 86 -104 219z" />
<glyph unicode="&#x438;" horiz-adv-x="1220" d="M61 0l199 1032h215l-135 -698l534 698h236l-199 -1032h-215l135 698l-534 -698h-236z" />
<glyph unicode="&#x439;" horiz-adv-x="1220" d="M61 0l199 1032h215l-135 -698l534 698h236l-199 -1032h-215l135 698l-534 -698h-236zM504 1393h2q0 27 4 41h166q-2 -6 -2 -19q0 -53 55 -53q72 0 84 72h168q-18 -101 -94 -162q-80 -64 -187 -64q-87 0 -145 52q-51 51 -51 133z" />
<glyph unicode="&#x43a;" horiz-adv-x="1064" d="M49 0l201 1032h215l-76 -401l397 401h281l-492 -479l328 -553h-264l-279 494l-96 -494h-215z" />
<glyph unicode="&#x43b;" horiz-adv-x="1232" d="M-23 0l33 188q89 0 142 35q52 40 73 121l201 688h696l-196 -1032h-215l161 844h-288l-174 -574q-52 -167 -146 -219q-89 -51 -287 -51z" />
<glyph unicode="&#x43c;" horiz-adv-x="1345" d="M61 0l199 1032h229l132 -631l374 631h240l-199 -1032h-215l119 621l-293 -527h-147l-105 527l-119 -621h-215z" />
<glyph unicode="&#x43d;" horiz-adv-x="1181" d="M61 0l199 1032h215l-74 -387h381l74 387h215l-199 -1032h-215l88 457h-380l-89 -457h-215z" />
<glyph unicode="&#x43e;" horiz-adv-x="1204" d="M51 426q0 284 162 446q174 174 442 177q194 0 312 -127q116 -128 116 -320q0 -283 -161 -444q-171 -174 -445 -174q-194 0 -309 127q-117 126 -117 317v-2zM281 446q0 -132 61 -202q62 -74 164 -74q150 0 252 129q94 122 94 283q0 129 -61 202q-62 74 -162 74 q-150 0 -252 -129q-94 -119 -94 -280z" />
<glyph unicode="&#x43f;" horiz-adv-x="1175" d="M61 0l199 1032h805l-199 -1032h-215l164 844h-375l-164 -844h-215z" />
<glyph unicode="&#x440;" horiz-adv-x="1249" d="M-29 -418l281 1450h215l-25 -119q44 55 129 97q79 39 181 39q180 0 274 -113q98 -113 98 -299q0 -281 -151 -467q-152 -186 -422 -186q-183 0 -264 125l-101 -527h-215zM342 432q0 -124 57 -190q56 -68 152 -68q154 0 250 131q92 133 92 295q0 119 -57 188 q-54 72 -152 72q-112 0 -190 -72q-78 -70 -115 -167q-35 -88 -35 -191z" />
<glyph unicode="&#x441;" horiz-adv-x="1120" d="M49 426q0 164 70 301q66 138 209 231q145 91 321 91q164 0 258 -76q99 -77 129 -211l-200 -80q-55 176 -222 176q-153 0 -243 -127q-92 -127 -92 -297q0 -126 53 -194q52 -70 149 -70q167 0 287 188l176 -79q-102 -164 -217 -230q-113 -65 -283 -65q-183 0 -286 118 q-107 119 -107 322z" />
<glyph unicode="&#x442;" horiz-adv-x="911" d="M90 844l35 188h770l-35 -188h-278l-164 -844h-215l164 844h-277z" />
<glyph unicode="&#x443;" horiz-adv-x="980" d="M-14 -418l254 477l-170 973h227l109 -694l360 694h235l-800 -1450h-215z" />
<glyph unicode="&#x444;" horiz-adv-x="1474" d="M49 432q0 268 184 440q185 173 459 179l78 399h211l-78 -399q198 0 318 -123t120 -328q0 -268 -184 -440q-185 -173 -459 -176l-77 -404h-211l77 404q-195 0 -317 122q-119 122 -119 326h-2zM276 461q0 -146 62 -217q62 -74 172 -74h10l133 688h-12q-156 0 -260 -113 q-105 -114 -105 -284zM731 170l14 2q158 0 261 115q104 113 104 282q0 147 -61 217q-60 72 -170 72h-15z" />
<glyph unicode="&#x445;" horiz-adv-x="974" d="M-80 0l447 559l-205 473h229l119 -307l231 307h248l-397 -493l223 -539h-225l-139 356l-281 -356h-250z" />
<glyph unicode="&#x446;" horiz-adv-x="1165" d="M49 0l201 1032h215l-166 -844h375l166 844h215l-166 -844h96l-119 -421h-194l47 233h-670z" />
<glyph unicode="&#x447;" horiz-adv-x="1114" d="M59 461q0 23 11 76l94 495h215l-84 -442q-6 -41 -6 -68q0 -143 131 -143q133 0 280 203l86 450h218l-199 -1032h-215l61 330q-95 -83 -159 -111q-67 -31 -162 -31q-122 0 -197 72q-72 72 -72 201h-2z" />
<glyph unicode="&#x448;" horiz-adv-x="1691" d="M49 0l199 1032h215l-164 -844h344l164 844h215l-164 -844h344l164 844h215l-199 -1032h-1333z" />
<glyph unicode="&#x449;" horiz-adv-x="1691" d="M49 0l199 1032h215l-164 -844h344l164 844h215l-164 -844h344l164 844h215l-164 -844h96l-118 -421h-195l47 233h-1198z" />
<glyph unicode="&#x44a;" horiz-adv-x="1015" d="M41 844l35 186h387l-76 -391h199q139 0 225 -70q84 -72 84 -207q0 -157 -121 -260q-117 -102 -293 -102h-432l164 844h-172zM299 186h166q90 0 151 37q60 42 60 113q0 115 -160 115h-166z" />
<glyph unicode="&#x44b;" horiz-adv-x="1644" d="M49 0l199 1030h215l-76 -391h199q139 0 225 -70q84 -72 84 -207q0 -157 -121 -260q-117 -102 -293 -102h-432zM299 186h166q90 0 151 37q60 42 60 113q0 115 -160 115h-166zM1116 0l203 1030h215l-203 -1030h-215z" />
<glyph unicode="&#x44c;" horiz-adv-x="1015" d="M49 0l199 1030h215l-76 -391h199q139 0 225 -70q84 -72 84 -207q0 -157 -121 -260q-117 -102 -293 -102h-432zM299 186h166q90 0 151 37q60 42 60 113q0 115 -160 115h-166z" />
<glyph unicode="&#x44d;" horiz-adv-x="1177" d="M45 250l188 84q28 -72 99 -121q64 -43 157 -43q222 0 308 252h-469l34 186h469q0 109 -59 180q-60 72 -174 72q-161 0 -281 -164l-165 92q193 261 477 261q211 0 319 -123q109 -124 109 -338q0 -239 -166 -420q-166 -184 -428 -184q-153 0 -262 71q-105 71 -156 195z" />
<glyph unicode="&#x44e;" horiz-adv-x="1665" d="M49 0l201 1030h215l-82 -422h147q37 163 144 264q171 174 440 177q193 0 311 -127q117 -129 117 -320q0 -286 -162 -444q-171 -174 -442 -174q-193 0 -309 125q-117 126 -117 313h-166l-82 -422h-215zM739 446q0 -128 62 -202t166 -74q150 0 252 129q94 126 94 283 q0 128 -62 202t-166 74q-150 0 -249 -129q-97 -123 -97 -280v-3z" />
<glyph unicode="&#x44f;" horiz-adv-x="1030" d="M-53 0l356 475q-158 77 -158 238q0 131 111 225t260 94h404l-199 -1032h-215l88 463h-78l-334 -463h-235zM350 731q0 -82 107 -82h176l39 195h-176q-53 0 -101 -31q-45 -26 -45 -80v-2z" />
<glyph unicode="&#x450;" horiz-adv-x="1148" d="M47 422q0 246 170 434q170 191 432 191q189 0 291 -111q104 -110 104 -285q0 -55 -10 -104l-16 -92h-746q-6 -35 -6 -68q0 -95 58 -156q55 -61 163 -61q175 0 310 188l161 -86q-103 -155 -221 -223q-116 -65 -295 -65q-186 0 -290 122q-105 123 -105 318v-2zM311 633h516 q0 102 -53 164q-52 61 -162 61q-103 0 -182 -61q-79 -64 -119 -164zM444 1448h293l84 -303h-168z" />
<glyph unicode="&#x451;" horiz-adv-x="1148" d="M47 422q0 246 170 434q170 191 432 191q189 0 291 -111q104 -110 104 -285q0 -55 -10 -104l-16 -92h-746q-6 -35 -6 -68q0 -95 58 -156q55 -61 163 -61q175 0 310 188l161 -86q-103 -155 -221 -223q-116 -65 -295 -65q-186 0 -290 122q-105 123 -105 318v-2zM311 633h516 q0 102 -53 164q-52 61 -162 61q-103 0 -182 -61q-79 -64 -119 -164zM401 1331q0 55 37 92q35 35 92 35q58 0 93 -35q36 -36 36 -92q0 -55 -36 -94q-37 -37 -93 -37q-55 0 -92 37q-37 40 -37 94zM780 1331q0 55 37 92q35 35 92 35q60 0 92 -35q37 -37 37 -92q0 -54 -37 -94 q-34 -37 -92 -37q-55 0 -92 37q-37 40 -37 94z" />
<glyph unicode="&#x452;" horiz-adv-x="1204" d="M49 0l223 1151h-135l33 172h135l27 125h215l-27 -125h244l-35 -172h-242l-57 -297q161 193 373 193q115 0 186 -62q70 -64 70 -168q0 -30 -10 -92l-154 -795q-34 -169 -145 -254q-115 -86 -301 -110l-19 207q112 25 182 82q62 56 86 172l123 645q8 50 8 71 q0 115 -124 115q-106 0 -213 -113q-107 -116 -144 -309l-84 -436h-215z" />
<glyph unicode="&#x453;" horiz-adv-x="903" d="M49 0l199 1032h665l-34 -188h-451l-164 -844h-215zM412 1147l200 303h293l-323 -303h-170z" />
<glyph unicode="&#x454;" horiz-adv-x="1130" d="M37 442q0 243 164 422q167 185 430 185q151 0 260 -74q105 -71 156 -195l-187 -84q-29 74 -96 119q-62 43 -160 43q-220 0 -305 -250h469l-35 -186h-469q0 -108 60 -180t174 -72q158 0 278 166l166 -92q-190 -260 -475 -260q-213 0 -320 122q-108 123 -108 338z" />
<glyph unicode="&#x455;" horiz-adv-x="937" d="M23 279l180 79q15 -82 71 -135q53 -53 138 -53q73 0 116 37q41 35 41 98q0 50 -47 86q-39 34 -135 78q-207 89 -207 266q0 148 96 232q98 82 261 82q104 0 184 -45q79 -46 117 -127l-158 -119q-68 102 -166 102q-55 0 -88 -26q-33 -30 -33 -78q0 -47 35 -74 q43 -31 121 -68q44 -19 90 -47q36 -21 70 -53q41 -38 57 -82q16 -50 16 -104q0 -174 -100 -258q-106 -86 -274 -86q-163 0 -267 90q-99 83 -118 205z" />
<glyph unicode="&#x456;" d="M49 0l201 1032h215l-201 -1032h-215zM266 1323q0 61 43 107q45 45 105 45q59 0 104 -45q43 -43 43 -107t-41 -102q-43 -43 -104 -43q-64 0 -107 43q-41 41 -41 102h-2z" />
<glyph unicode="&#x457;" d="M49 0l201 1032h215l-201 -1032h-215zM96 1333q0 55 37 92q35 35 92 35q60 0 92 -35q37 -37 37 -92q0 -54 -37 -94q-34 -37 -92 -37q-55 0 -92 37q-37 40 -37 94zM475 1333q0 55 37 92q35 35 92 35q59 0 94 -35q37 -37 37 -92q0 -54 -37 -94q-37 -37 -94 -37q-55 0 -92 37 q-37 40 -37 94z" />
<glyph unicode="&#x458;" d="M-184 -227v-2q115 27 182 84q62 53 86 170l195 1005h215l-213 -1098q-35 -173 -146 -256q-115 -86 -301 -110zM295 1321q0 63 43 106q46 46 104 46q59 0 105 -46q43 -46 43 -106q0 -61 -41 -102q-43 -43 -107 -43q-61 0 -104 43q-41 38 -41 102h-2z" />
<glyph unicode="&#x459;" horiz-adv-x="1609" d="M-23 0l33 186q90 0 142 37q53 40 73 119l201 688h633l-78 -391h201q139 0 225 -70q82 -73 82 -207q0 -159 -119 -260q-120 -102 -295 -102h-432l164 844h-223l-174 -574q-52 -167 -146 -219q-89 -51 -287 -51zM893 186h166q90 0 151 37q60 42 60 113q0 115 -160 115h-166 z" />
<glyph unicode="&#x45a;" horiz-adv-x="1630" d="M49 0l199 1030h211l-74 -391h401l76 391h215l-76 -391h199q139 0 225 -70q82 -70 82 -207q0 -159 -116 -260q-120 -102 -295 -102h-432l86 451h-402l-88 -451h-211zM913 186h164q93 0 154 37q59 41 59 113q0 115 -160 115h-165z" />
<glyph unicode="&#x45b;" horiz-adv-x="1204" d="M49 0l225 1151h-135l33 172h135l25 127h215l-25 -127h242l-33 -172h-242l-57 -297q157 195 373 195q116 0 184 -62q70 -61 70 -168q0 -45 -10 -94l-142 -725h-215l129 672q8 50 8 71q0 115 -124 115q-106 0 -213 -113q-107 -116 -144 -309l-84 -436h-215z" />
<glyph unicode="&#x45c;" horiz-adv-x="1064" d="M49 0l201 1032h215l-76 -401l397 401h281l-492 -479l328 -553h-264l-279 494l-96 -494h-215zM457 1147l200 303h293l-323 -303h-170z" />
<glyph unicode="&#x45d;" horiz-adv-x="1224" d="M66 0l198 1032h215l-135 -698l535 698h235l-199 -1032h-215l136 698l-535 -698h-235zM459 1450h293l84 -303h-168z" />
<glyph unicode="&#x45e;" horiz-adv-x="980" d="M-14 -418l254 477l-170 973h227l109 -694l360 694h235l-800 -1450h-215zM340 1393q0 27 2 41h168q-2 -6 -2 -19q0 -53 55 -53q72 0 84 72h166q-14 -97 -92 -162q-80 -64 -184 -64q-91 0 -146 52q-51 51 -51 133z" />
<glyph unicode="&#x45f;" horiz-adv-x="1169" d="M49 0l201 1032h215l-166 -844h379l166 844h215l-201 -1032h-297l-47 -233h-215l47 233h-297z" />
<glyph unicode="&#x2000;" horiz-adv-x="932" />
<glyph unicode="&#x2001;" horiz-adv-x="1864" />
<glyph unicode="&#x2002;" horiz-adv-x="932" />
<glyph unicode="&#x2003;" horiz-adv-x="1864" />
<glyph unicode="&#x2004;" horiz-adv-x="621" />
<glyph unicode="&#x2005;" horiz-adv-x="466" />
<glyph unicode="&#x2006;" horiz-adv-x="310" />
<glyph unicode="&#x2007;" horiz-adv-x="310" />
<glyph unicode="&#x2008;" horiz-adv-x="233" />
<glyph unicode="&#x2009;" horiz-adv-x="372" />
<glyph unicode="&#x200a;" horiz-adv-x="103" />
<glyph unicode="&#x2010;" horiz-adv-x="999" d="M104 555l35 188h723l-35 -188h-723z" />
<glyph unicode="&#x2011;" horiz-adv-x="999" d="M104 555l35 188h723l-35 -188h-723z" />
<glyph unicode="&#x2012;" horiz-adv-x="999" d="M104 555l35 188h723l-35 -188h-723z" />
<glyph unicode="&#x2013;" horiz-adv-x="1146" d="M102 555l35 188h887l-35 -188h-887z" />
<glyph unicode="&#x2014;" horiz-adv-x="1529" d="M102 555l35 188h1270l-35 -188h-1270z" />
<glyph unicode="&#x2018;" horiz-adv-x="583" d="M162 1450h291l63 -455h-158z" />
<glyph unicode="&#x2019;" horiz-adv-x="516" d="M102 995l238 455h293l-373 -455h-158z" />
<glyph unicode="&#x201a;" horiz-adv-x="696" d="M-10 -29l237 455h293l-373 -455h-157z" />
<glyph unicode="&#x201c;" horiz-adv-x="993" d="M162 1450h291l63 -455h-158zM571 1450h291l64 -455h-158z" />
<glyph unicode="&#x201d;" horiz-adv-x="925" d="M102 995l238 455h293l-373 -455h-158zM512 995l238 455h292l-372 -455h-158z" />
<glyph unicode="&#x201e;" horiz-adv-x="1105" d="M-10 -29l237 455h293l-373 -455h-157zM399 -29l238 455h293l-373 -455h-158z" />
<glyph unicode="&#x2022;" horiz-adv-x="755" d="M143 676q0 89 64 153t151 64t154 -64q61 -64 61 -153q0 -90 -61 -154q-64 -61 -154 -61t-151 61q-64 64 -64 154z" />
<glyph unicode="&#x2026;" horiz-adv-x="1693" d="M47 141q0 64 43 107q48 45 109 45t106 -45q43 -43 43 -107q0 -63 -43 -106q-42 -45 -106 -45t-109 45q-43 43 -43 106zM596 141q0 64 43 107q48 45 109 45t106 -45q43 -43 43 -107q0 -63 -43 -106q-42 -45 -106 -45t-109 45q-43 43 -43 106zM1145 141q0 65 45 107 q45 45 106 45q62 0 107 -45t45 -107q0 -61 -45 -106q-42 -45 -107 -45q-64 0 -106 45q-45 42 -45 106z" />
<glyph unicode="&#x202f;" horiz-adv-x="372" />
<glyph unicode="&#x2039;" horiz-adv-x="817" d="M66 565l30 152l680 413l-49 -247l-430 -254l328 -271l-43 -219z" />
<glyph unicode="&#x203a;" horiz-adv-x="817" d="M39 139l49 248l430 254l-328 270l43 219l517 -425l-31 -152z" />
<glyph unicode="&#x205f;" horiz-adv-x="466" />
<glyph unicode="&#x20ac;" horiz-adv-x="1259" d="M12 467l129 186h88l25 123h-182l129 189h104q90 236 258 360q169 125 375 125q144 0 244 -68q98 -70 137 -180l-203 -102q-59 158 -215 155q-262 0 -375 -288h484l-131 -191h-410l-23 -123h504l-131 -186h-389q0 -144 70 -217q70 -76 192 -76q86 0 142 39q62 40 127 119 l157 -103q-166 -245 -465 -245q-200 0 -321 133t-121 350h-199z" />
<glyph unicode="&#x2122;" horiz-adv-x="1701" d="M158 1278l28 156h605l-29 -156h-215l-129 -664h-174l129 664h-215zM760 614l158 820h176l100 -500l303 500h186l-157 -820h-174l90 463l-230 -387h-110l-78 387l-90 -463h-174z" />
<glyph unicode="&#x25fc;" horiz-adv-x="1034" d="M0 0v1034h1034v-1034h-1034z" />
</font>
</defs>
</svg>
