<?xml version="1.0" standalone="no"?>
<!DOCTYPE svg PUBLIC "-//W3C//DTD SVG 1.1//EN" "http://www.w3.org/Graphics/SVG/1.1/DTD/svg11.dtd" >
<svg xmlns="http://www.w3.org/2000/svg">
<metadata></metadata>
<defs>
<font id="apercu_proitalic" horiz-adv-x="1247" >
<font-face units-per-em="2048" ascent="1638" descent="-410" />
<missing-glyph horiz-adv-x="475" />
<glyph horiz-adv-x="0" />
<glyph horiz-adv-x="0" />
<glyph unicode="&#xd;" horiz-adv-x="681" />
<glyph unicode=" "  horiz-adv-x="475" />
<glyph unicode="&#x09;" horiz-adv-x="475" />
<glyph unicode="&#xa0;" horiz-adv-x="475" />
<glyph unicode="!" horiz-adv-x="710" d="M123 133q0 61 41 105q41 41 102 41q62 0 103 -41q41 -44 41 -105q0 -57 -41 -98q-38 -41 -103 -41q-64 0 -102 41q-41 41 -41 98zM250 410l149 1024h234l-248 -1024h-135z" />
<glyph unicode="&#x22;" horiz-adv-x="907" d="M266 975l41 475h230l-144 -475h-127zM580 975l41 475h229l-143 -475h-127z" />
<glyph unicode="#" horiz-adv-x="1415" d="M78 426l16 139h266l101 303h-246l16 140h275l139 426h156l-139 -426h280l139 426h154l-139 -426h239l-16 -140h-268l-101 -303h248l-16 -139h-277l-137 -426h-154l138 426h-281l-135 -426h-158l137 426h-237zM516 565h281l100 303h-281z" />
<glyph unicode="$" horiz-adv-x="1071" d="M45 377l164 86q9 -132 76 -221q68 -86 186 -86q125 0 207 67q82 73 82 199q0 97 -51 151q-54 57 -168 111q-281 139 -281 367q0 173 98 274q100 103 260 121l35 172h164l-37 -184q86 -30 142 -95q55 -61 77 -143l-155 -86q-62 170 -199 170q-92 0 -145 -53 q-54 -57 -54 -148q0 -85 56 -141q51 -51 174 -117q146 -79 207 -149q61 -73 61 -215q0 -222 -133 -340q-125 -119 -311 -131l-33 -170h-164l35 180q-126 31 -209 139q-84 113 -84 242z" />
<glyph unicode="%" horiz-adv-x="1798" d="M131 31l1385 1470l94 -88l-1387 -1472zM156 1075q0 171 118 277q112 98 271 98q114 0 194 -80q80 -77 80 -205q0 -165 -119 -272q-110 -98 -268 -98q-117 0 -194 77q-80 77 -80 205zM307 1098q0 -78 41 -119t107 -41q84 0 143 53q68 62 68 156q0 78 -41 119t-107 41 q-83 0 -143 -54q-68 -62 -68 -155zM911 264q0 170 119 277q115 98 270 98q115 0 195 -80q80 -77 80 -205q0 -168 -119 -272q-110 -98 -268 -98q-118 0 -195 77q-80 77 -80 205zM1063 287h2q0 -81 41 -119q41 -41 104 -41q85 0 144 53q68 62 65 156q0 81 -41 119 q-41 41 -104 41q-84 0 -144 -54q-67 -61 -67 -155z" />
<glyph unicode="&#x26;" horiz-adv-x="1271" d="M63 348q0 329 379 508q-80 127 -80 244q0 164 101 258q100 92 268 92q134 0 209 -78q76 -73 76 -190q0 -126 -96 -213q-92 -87 -263 -168l222 -375q72 107 145 252l96 -146q-81 -153 -155 -249l165 -283h-192l-88 154q-180 -168 -420 -168q-159 0 -262 100 q-105 102 -105 264v-2zM238 371q0 -116 61 -174q66 -60 164 -60q165 0 305 152l-254 436q-276 -144 -276 -352v-2zM528 1106q0 -87 58 -186q264 123 264 245q0 135 -131 138q-75 0 -133 -52q-56 -53 -56 -145h-2z" />
<glyph unicode="'" horiz-adv-x="593" d="M266 975l41 475h230l-144 -475h-127z" />
<glyph unicode="(" horiz-adv-x="583" d="M102 395q0 669 414 1141h182q-413 -509 -413 -1141q0 -276 96 -497h-182q-97 213 -97 497z" />
<glyph unicode=")" horiz-adv-x="583" d="M-133 -100q412 505 412 1136q0 287 -97 500h183q96 -221 96 -498q0 -669 -412 -1140h-182v2z" />
<glyph unicode="*" horiz-adv-x="1001" d="M174 1122l68 133l252 -88l55 283h139l-55 -283l285 88l26 -131l-293 -90l121 -227l-129 -80l-121 227l-203 -227l-104 80l207 227z" />
<glyph unicode="+" horiz-adv-x="1181" d="M98 578l31 151h373l71 375h154l-72 -375h373l-31 -151h-372l-72 -375h-154l72 375h-373z" />
<glyph unicode="," horiz-adv-x="673" d="M-8 -219l209 444h239l-319 -444h-129z" />
<glyph unicode="-" horiz-adv-x="980" d="M113 573l30 152h695l-31 -152h-694z" />
<glyph unicode="." horiz-adv-x="563" d="M51 121q0 53 37 90q39 39 92 39q51 0 90 -39q39 -36 39 -90q0 -56 -39 -92q-34 -37 -90 -37q-58 0 -92 37q-37 37 -37 92z" />
<glyph unicode="/" horiz-adv-x="1013" d="M-195 -102l1207 1638h182l-1206 -1638h-183z" />
<glyph unicode="0" horiz-adv-x="1191" d="M72 498h2q0 459 215 733q174 219 440 219q188 0 289 -131q102 -132 102 -383q0 -459 -215 -733q-174 -219 -442 -219q-183 0 -289 133q-102 132 -102 381zM252 518q0 -196 59 -285q58 -88 174 -88q95 0 177 54q79 55 131 137q49 82 84 188q35 121 47 203q14 115 14 186 q0 197 -59 283q-59 90 -174 90q-119 0 -211 -80q-93 -81 -142 -202t-73 -246q-23 -121 -23 -238z" />
<glyph unicode="1" horiz-adv-x="768" d="M147 1024l37 188l408 222h65l-280 -1434h-170l229 1176z" />
<glyph unicode="2" horiz-adv-x="1110" d="M-14 0l14 78l657 700q53 55 88 96q28 30 62 97q29 63 29 114q0 199 -187 199q-94 0 -162 -65q-66 -63 -102 -179l-174 33q46 169 162 273q113 104 293 104q162 0 256 -88q96 -93 96 -227q0 -124 -43 -211q-48 -91 -144 -193l-532 -567h567l-30 -164h-850z" />
<glyph unicode="3" horiz-adv-x="1110" d="M18 389l172 25v-15q0 -110 68 -184q69 -72 186 -72q297 0 297 357q0 122 -61 186q-66 66 -172 66q-72 0 -133 -27l-53 96l387 447h-498l31 164h780l-10 -56l-457 -493q24 6 53 6q152 0 234 -101q84 -101 84 -284q0 -232 -133 -377q-134 -143 -367 -143q-180 0 -293 116 t-113 277z" />
<glyph unicode="4" horiz-adv-x="1138" d="M20 305l15 72l790 1057h199l-188 -965h170l-33 -164h-170l-60 -305h-182l60 305h-601zM287 469h366l127 666z" />
<glyph unicode="5" horiz-adv-x="1110" d="M41 377l168 31v-17q0 -112 57 -178t164 -66q148 0 240 105q94 108 94 274q0 258 -219 258q-79 0 -166 -41q-93 -47 -156 -116l-106 22l215 785h700l-28 -164h-547l-123 -416q107 94 254 94q166 0 262 -96q96 -101 96 -297q0 -258 -143 -416q-146 -155 -393 -155 q-158 0 -263 102q-104 104 -104 268z" />
<glyph unicode="6" horiz-adv-x="1134" d="M70 365q0 194 135 372l545 713h208l-417 -547q43 15 71 15q163 0 262 -99t99 -289q0 -237 -150 -393q-150 -153 -385 -153q-176 0 -270 104q-98 104 -98 277zM252 391h2q0 -244 211 -244q141 0 233 105q95 106 95 256q0 122 -62 184q-58 64 -162 64q-142 0 -229 -109 q-88 -110 -88 -256z" />
<glyph unicode="7" horiz-adv-x="1017" d="M51 0l770 1270h-655l33 164h880l-16 -76l-815 -1358h-197z" />
<glyph unicode="8" horiz-adv-x="1126" d="M51 348q0 137 76 252q70 105 215 170q-113 87 -113 250q0 196 150 319q129 111 326 111q158 0 245 -90q86 -92 86 -242q0 -125 -65 -213q-63 -89 -174 -137q69 -38 112 -111q45 -74 45 -184q0 -221 -129 -350q-139 -139 -397 -139q-160 0 -268 102q-109 100 -109 264v-2z M233 379l3 2q0 -105 59 -170q64 -64 166 -64q136 0 223 84q90 84 90 222q0 102 -55 163q-57 60 -164 60q-131 0 -227 -84q-95 -86 -95 -213zM403 1028q0 -86 50 -139q48 -51 135 -51q108 0 194 71q84 75 84 187q0 93 -49 145q-44 53 -141 53q-115 0 -193 -75 q-77 -71 -77 -189z" />
<glyph unicode="9" horiz-adv-x="1134" d="M164 899q0 240 149 395q150 156 385 156q175 0 273 -104t98 -279q0 -195 -135 -373l-545 -710h-209l418 544q-40 -14 -74 -14q-160 0 -260 100q-98 98 -98 287zM342 928q0 -126 61 -187q57 -63 162 -63q141 0 230 108q90 110 90 254q0 244 -211 244q-142 0 -236 -104 q-92 -106 -92 -254z" />
<glyph unicode=":" horiz-adv-x="608" d="M82 121q0 53 37 90q39 39 94 39q49 0 88 -39q39 -36 39 -90q0 -56 -39 -92q-34 -37 -88 -37q-60 0 -94 37q-37 37 -37 92zM217 825q0 53 37 90t92 37q53 0 90 -37q39 -36 39 -90q0 -55 -39 -94q-37 -37 -90 -37q-55 0 -92 37q-37 40 -37 94z" />
<glyph unicode=";" horiz-adv-x="608" d="M-70 -219l209 444h240l-320 -444h-129zM217 825q0 53 37 90t92 37q53 0 90 -37q39 -36 39 -90q0 -55 -39 -94q-37 -37 -90 -37q-55 0 -92 37q-37 40 -37 94z" />
<glyph unicode="&#x3c;" horiz-adv-x="935" d="M78 545v180l715 381v-178l-547 -293l547 -293v-178z" />
<glyph unicode="=" horiz-adv-x="1189" d="M168 389v152h817v-152h-817zM168 729v152h817v-152h-817z" />
<glyph unicode="&#x3e;" horiz-adv-x="935" d="M143 164v178l547 293l-547 293v178l715 -381v-180z" />
<glyph unicode="?" horiz-adv-x="911" d="M156 645l2 -2q0 107 57 170q66 69 172 115l201 88q125 58 125 158q0 64 -43 98q-44 35 -109 35q-155 0 -237 -199l-158 43q46 133 156 217q107 82 260 82q138 0 219 -72q82 -76 82 -194q0 -98 -52 -166q-53 -65 -149 -113l-244 -114q-57 -32 -94 -64q-31 -31 -31 -82 q0 -43 27 -67q26 -23 66 -23q53 0 86 33q36 31 73 98l133 -57q-62 -124 -129 -170q-61 -47 -168 -47q-113 0 -178 65q-67 64 -67 168zM186 127q0 56 39 98q38 41 99 41q60 0 98 -41q41 -41 41 -98q0 -55 -41 -96q-39 -39 -98 -39q-58 0 -97 39t-39 96h-2z" />
<glyph unicode="@" horiz-adv-x="1855" d="M119 537q0 429 254 680q251 251 674 251q303 0 493 -172q191 -173 191 -483q0 -165 -37 -289q-37 -127 -133 -217q-97 -88 -238 -88q-80 0 -139 41q-61 42 -78 98q-112 -139 -299 -139q-151 0 -238 96q-84 101 -84 250q0 216 127 355q131 137 353 137q74 0 145 -33 q65 -32 92 -84l35 102h133l-110 -516l-13 -67q0 -90 86 -90q80 0 133 65q55 67 76 158t21 205q0 256 -138 391t-401 135q-322 0 -526 -213q-201 -213 -201 -561q0 -278 166 -434q168 -160 424 -160q267 0 536 133l43 -143q-189 -82 -301 -109q-135 -29 -295 -29 q-334 0 -538 201q-209 200 -209 529h-4zM653 580q0 -92 47 -154q48 -57 140 -57q126 0 207 100q81 97 81 227q0 213 -182 213q-127 0 -211 -96q-82 -97 -82 -233z" />
<glyph unicode="A" horiz-adv-x="1175" d="M-117 0l762 1434h174l217 -1434h-182l-51 383h-535l-202 -383h-183zM358 555h420l-92 645z" />
<glyph unicode="B" d="M72 0l280 1432h455q173 0 264 -82q90 -81 90 -238q0 -120 -61 -205q-65 -83 -166 -129q77 -35 131 -106q51 -71 51 -185q0 -235 -149 -360q-151 -127 -389 -127h-506zM289 170h295q157 0 250 72q94 72 94 211q0 107 -64 165t-180 58h-297zM418 848l287 -2q112 0 192 59 t80 172q0 180 -197 183h-282z" />
<glyph unicode="C" horiz-adv-x="1355" d="M80 557l4 -2q0 229 92 430q91 202 277 332q183 131 426 131q201 0 325 -127q125 -128 137 -307l-174 -47q-50 309 -323 309q-178 0 -316 -107q-135 -105 -196 -260q-64 -155 -64 -334q0 -203 90 -313q88 -108 265 -108q142 0 243 73q105 74 193 242l160 -51 q-198 -434 -619 -434q-234 0 -377 149t-143 424z" />
<glyph unicode="D" horiz-adv-x="1370" d="M72 0l280 1436h369q258 0 412 -148q151 -145 151 -426q0 -369 -227 -614q-227 -248 -588 -248h-397zM289 172h180q284 0 453 193q170 191 170 481q0 207 -107 311q-104 107 -303 107h-182z" />
<glyph unicode="E" horiz-adv-x="1153" d="M72 0l280 1434h811l-35 -172h-628l-80 -412h512l-33 -172h-512l-98 -506h649l-35 -172h-831z" />
<glyph unicode="F" horiz-adv-x="1128" d="M72 0l280 1434h817l-34 -172h-635l-82 -428h512l-35 -172h-512l-129 -662h-182z" />
<glyph unicode="G" horiz-adv-x="1429" d="M76 565q0 231 92 432q86 195 274 326q183 125 426 125q204 0 334 -121q128 -125 137 -311l-180 -47q-40 307 -321 307q-251 0 -412 -205q-162 -198 -162 -479q0 -207 92 -326q91 -110 262 -110q169 0 287 106q121 109 172 289h-295l33 172h483l-141 -723h-156l19 197 q-83 -110 -189 -162q-99 -51 -245 -51q-210 0 -359 149q-147 150 -147 434z" />
<glyph unicode="H" horiz-adv-x="1423" d="M72 0l280 1434h183l-115 -586h635l114 586h183l-281 -1434h-182l133 676h-635l-133 -676h-182z" />
<glyph unicode="I" horiz-adv-x="606" d="M72 0l280 1434h183l-281 -1434h-182z" />
<glyph unicode="J" horiz-adv-x="1107" d="M10 358l183 37q0 -239 202 -239q220 0 279 293l190 985h183l-205 -1055q-38 -194 -162 -295q-121 -100 -305 -100q-167 0 -264 112q-101 110 -101 262z" />
<glyph unicode="K" horiz-adv-x="1222" d="M72 0l280 1434h183l-113 -576l610 576h246l-698 -652l458 -782h-221l-422 723l-141 -723h-182z" />
<glyph unicode="L" horiz-adv-x="1036" d="M72 0l280 1434h183l-246 -1262h631l-35 -172h-813z" />
<glyph unicode="M" horiz-adv-x="1617" d="M72 0l280 1434h213l189 -1010l571 1010h221l-280 -1434h-183l205 1044l-520 -913h-135l-174 913l-205 -1044h-182z" />
<glyph unicode="N" horiz-adv-x="1445" d="M72 0l280 1434h203l418 -1121l219 1121h182l-280 -1434h-203l-420 1116l-217 -1116h-182z" />
<glyph unicode="O" horiz-adv-x="1460" d="M80 561q0 450 309 713q201 174 479 174q225 0 367 -154q141 -153 141 -426q0 -450 -309 -710q-201 -174 -479 -174q-226 0 -367 153q-141 156 -141 426v-2zM268 578q0 -202 88 -316q86 -108 258 -108q216 0 371 168q203 212 203 530q0 203 -90 313q-88 111 -258 111 q-216 0 -371 -168q-201 -213 -201 -530z" />
<glyph unicode="P" horiz-adv-x="1196" d="M72 0l278 1434h459q172 0 278 -95q107 -93 107 -245q0 -235 -143 -357q-141 -123 -385 -123h-291l-121 -614h-182zM406 784h313q124 0 205 72q77 71 77 203q0 93 -51 147q-53 56 -153 56h-299z" />
<glyph unicode="Q" horiz-adv-x="1460" d="M80 563l2 -2q0 451 307 715q204 174 481 174q226 0 367 -156q139 -154 139 -426q0 -381 -227 -632l104 -134l-143 -118l-102 125q-177 -125 -420 -125q-226 0 -367 153q-141 156 -141 426zM268 578q0 -203 90 -316q88 -108 258 -108q156 0 281 88l-133 166l147 120 l121 -151q156 205 156 475q0 201 -88 315q-91 111 -258 111q-213 0 -373 -168q-201 -216 -201 -530v-2z" />
<glyph unicode="R" horiz-adv-x="1220" d="M72 0l278 1434h457q166 0 266 -86q96 -83 96 -238q0 -180 -100 -289q-103 -112 -276 -133l292 -688h-202l-285 676h-211l-133 -676h-182zM420 848l285 -2q128 0 202 59t74 172q0 182 -205 185h-276z" />
<glyph unicode="S" horiz-adv-x="1071" d="M45 377l162 90q9 -138 76 -223q65 -86 186 -86q124 0 205 69q82 67 82 199q0 98 -51 152q-45 48 -166 110q-283 135 -283 367q0 186 119 293q116 104 303 104q122 0 207 -76q86 -74 110 -178l-153 -86q-61 168 -199 168q-94 0 -147 -53q-52 -55 -52 -146q0 -87 54 -141 q59 -55 176 -117q72 -38 112 -65q49 -34 84 -74q43 -47 60 -98q16 -59 16 -129q0 -217 -135 -340q-79 -76 -168 -107q-82 -26 -211 -26q-153 0 -270 114q-117 117 -117 279z" />
<glyph unicode="T" horiz-adv-x="1038" d="M125 1262l35 172h989l-35 -172h-403l-246 -1262h-182l245 1262h-403z" />
<glyph unicode="U" horiz-adv-x="1376" d="M141 350q0 72 15 137l182 947h180l-184 -959q-8 -47 -8 -82q0 -235 241 -235h6q159 0 256 84q100 83 127 233l187 961h182l-182 -949q-94 -501 -584 -501h-6q-185 0 -297 100q-113 101 -113 264h-2z" />
<glyph unicode="V" horiz-adv-x="1142" d="M125 1434h190l148 -1178l614 1178h195l-766 -1434h-182z" />
<glyph unicode="W" horiz-adv-x="1814" d="M184 1434h191l57 -1168l477 1016h170l103 -1016l510 1168h192l-653 -1434h-182l-113 983l-463 -983h-182z" />
<glyph unicode="X" horiz-adv-x="1087" d="M-111 0l596 786l-241 648h192l176 -480l363 480h201l-498 -658l291 -776h-189l-229 608l-455 -608h-207z" />
<glyph unicode="Y" horiz-adv-x="991" d="M115 1434h192l187 -635l430 635h202l-571 -816l-121 -618h-182l121 618z" />
<glyph unicode="Z" horiz-adv-x="1126" d="M-43 0l16 86l869 1176h-635l35 172h891l-19 -86l-868 -1176h678l-35 -172h-932z" />
<glyph unicode="[" horiz-adv-x="657" d="M45 -102l315 1638h388l-31 -156h-221l-256 -1327h221l-31 -155h-385z" />
<glyph unicode="\" horiz-adv-x="1013" d="M141 1536h172l576 -1638h-172z" />
<glyph unicode="]" horiz-adv-x="657" d="M-88 -102l29 155h221l256 1327h-221l30 156h387l-317 -1638h-385z" />
<glyph unicode="^" horiz-adv-x="1163" d="M143 862l381 572h140l380 -572h-170l-280 416l-281 -416h-170z" />
<glyph unicode="_" horiz-adv-x="927" d="M-90 -152l31 152h817l-31 -152h-817z" />
<glyph unicode="`" horiz-adv-x="421" d="M113 1442h247l99 -295h-140z" />
<glyph unicode="a" horiz-adv-x="1200" d="M55 403l2 -2q0 270 148 459q145 189 409 189q100 0 179 -45q77 -44 98 -97l20 123h174l-196 -1030h-174l22 127q-128 -143 -305 -143q-186 0 -280 116q-97 115 -97 303zM240 451q0 -147 63 -228q66 -84 180 -84q117 0 201 78q86 80 121 186q35 110 35 220q0 125 -62 196 q-62 74 -176 74q-174 0 -268 -135q-94 -134 -94 -307z" />
<glyph unicode="b" horiz-adv-x="1220" d="M61 0l283 1448h174l-102 -543q49 58 131 101q84 41 174 41q166 0 266 -109t100 -326q0 -262 -143 -446q-141 -182 -412 -182q-81 0 -163 45q-84 44 -107 98l-26 -127h-175zM311 428h2q0 -140 66 -215q66 -78 170 -78q171 0 262 135q96 137 96 316q0 303 -231 303 q-153 0 -258 -141q-107 -140 -107 -320z" />
<glyph unicode="c" horiz-adv-x="1105" d="M55 416l2 -4q0 246 158 442q161 193 430 193q300 0 371 -287l-156 -62q-53 193 -246 193q-165 0 -270 -135q-104 -137 -104 -326q0 -136 61 -215q62 -80 168 -80q99 0 172 51q72 52 137 160l148 -76q-109 -164 -215 -225q-107 -61 -273 -61q-175 0 -278 118 q-105 117 -105 314z" />
<glyph unicode="d" horiz-adv-x="1253" d="M55 381q0 273 154 471q156 197 409 197q95 0 175 -39q74 -39 110 -103l105 543h174l-283 -1450h-174l27 127q-131 -143 -324 -143q-179 0 -276 106q-97 109 -97 291zM236 426q0 -133 61 -209q63 -78 176 -78q120 0 209 80q91 82 129 191q41 109 41 219q0 128 -68 196 q-70 70 -180 70q-115 0 -205 -78q-84 -72 -123 -178q-36 -101 -36 -213h-4z" />
<glyph unicode="e" horiz-adv-x="1150" d="M49 414q0 245 172 438q174 192 426 192q178 0 279 -104q102 -105 102 -281q0 -36 -10 -104l-17 -80h-763q-7 -47 -7 -72q0 -123 62 -194q63 -72 178 -72q113 0 184 51q77 52 140 154l147 -74q-104 -152 -219 -219q-113 -65 -281 -65q-181 0 -284 118q-107 119 -107 316z M279 631h567q0 258 -230 258q-112 0 -202 -72q-92 -74 -135 -186z" />
<glyph unicode="f" horiz-adv-x="694" d="M61 0l170 877h-147l31 155h147l12 68q35 188 125 266q96 84 258 84q73 0 148 -37l-64 -147q-51 26 -98 26h-10q-78 0 -119 -41t-61 -137l-17 -82h230l-31 -155h-229l-170 -877h-175z" />
<glyph unicode="g" horiz-adv-x="1044" d="M-47 -139q0 152 135 260q-43 46 -43 129q0 143 172 231q-45 65 -45 156q0 180 117 297q115 115 305 115q99 0 184 -48l195 99l59 -135l-151 -78q20 -47 20 -131q0 -172 -121 -287q-122 -113 -301 -113q-89 0 -166 41q-96 -38 -96 -112q0 -31 25 -56q20 -20 67 -20h236 q289 0 289 -250q0 -190 -148 -293q-144 -100 -362 -100q-163 0 -267 82q-104 79 -104 213zM127 -102v-2q0 -80 55 -132q53 -53 170 -53q121 0 209 51q90 53 90 164q0 131 -157 131h-199q-20 0 -74 4q-94 -46 -94 -163zM344 666q0 -81 43 -121q46 -43 117 -43q96 0 162 63 q65 62 65 164q0 84 -43 127q-40 43 -115 43q-99 0 -161 -65q-68 -65 -68 -168z" />
<glyph unicode="h" horiz-adv-x="1196" d="M61 0l281 1450h172l-119 -610q153 209 389 209q116 0 185 -60t69 -172q0 -38 -10 -100l-139 -717h-174l131 682q6 38 6 74q0 137 -141 137q-117 0 -236 -125q-119 -131 -156 -330l-83 -438h-175z" />
<glyph unicode="i" horiz-adv-x="565" d="M61 0l201 1032h174l-200 -1032h-175zM270 1319q0 55 37 92q36 39 92 39q60 0 93 -39q36 -36 36 -92q0 -54 -36 -90q-34 -37 -93 -37q-55 0 -92 37t-37 90z" />
<glyph unicode="j" horiz-adv-x="565" d="M-180 -266h2q100 23 160 73q55 46 73 154l207 1069h174l-211 -1083q-34 -181 -125 -269q-95 -88 -264 -112zM272 1319q0 55 37 92q39 39 92 39q54 0 93 -39q36 -36 36 -92q0 -54 -36 -90q-34 -37 -93 -37q-58 0 -92 37q-37 37 -37 90z" />
<glyph unicode="k" horiz-adv-x="1040" d="M61 0l281 1450h174l-164 -850l443 432h235l-510 -483l350 -549h-211l-323 518l-100 -518h-175z" />
<glyph unicode="l" horiz-adv-x="626" d="M100 0l281 1450h174l-281 -1450h-174z" />
<glyph unicode="m" horiz-adv-x="1753" d="M61 0l201 1030h174l-37 -188q145 207 351 207q103 0 170 -58q61 -58 67 -157q156 215 369 215q237 0 237 -226v-6q0 -51 -8 -90l-139 -727h-174l133 690q6 50 6 78q0 125 -131 125q-105 0 -211 -127q-103 -123 -147 -342l-82 -424h-174l133 690q6 38 6 78q0 125 -129 125 q-108 0 -211 -127q-104 -125 -148 -342l-81 -424h-175z" />
<glyph unicode="n" horiz-adv-x="1181" d="M61 0l201 1032h174l-37 -190q155 207 373 207q118 0 184 -60q68 -62 68 -166q0 -49 -6 -96l-144 -727h-174l131 682q3 18 11 72q0 139 -140 139q-110 0 -227 -129q-119 -131 -156 -332l-83 -432h-175z" />
<glyph unicode="o" horiz-adv-x="1173" d="M55 418v2q0 252 144 430q160 201 436 201q187 0 299 -115q106 -115 106 -322q0 -255 -141 -430q-158 -198 -426 -198h-8q-192 0 -301 112t-109 320zM238 444q0 -148 61 -223q64 -80 178 -80q171 0 289 148q92 118 92 305q0 142 -61 221q-62 80 -181 80q-172 0 -284 -145 q-92 -118 -92 -306h-2z" />
<glyph unicode="p" horiz-adv-x="1239" d="M-20 -418l280 1448h174l-26 -127q58 67 143 107q89 39 180 39q177 0 275 -107q100 -109 100 -291q0 -273 -154 -471q-153 -196 -409 -196q-193 0 -285 139l-104 -541h-174zM307 403q0 -129 64 -196q61 -70 184 -70q117 0 205 76q85 76 125 180q37 104 37 211 q0 132 -62 209q-62 80 -176 80q-118 0 -209 -82q-88 -79 -129 -188q-39 -101 -39 -217v-3z" />
<glyph unicode="q" horiz-adv-x="1183" d="M51 416q0 264 146 448q144 185 411 185q82 0 164 -45q83 -44 107 -99l26 127h174l-282 -1450h-174l104 541q-51 -57 -131 -98q-84 -41 -174 -41q-170 0 -268 110q-99 111 -99 324zM236 438q0 -303 231 -303q153 0 258 141q102 141 102 322q0 143 -63 215q-66 78 -170 78 q-170 0 -264 -135q-94 -134 -94 -316v-2z" />
<glyph unicode="r" horiz-adv-x="894" d="M61 0l201 1032h174l-35 -176q123 193 334 193q91 0 142 -31l-64 -154q-56 29 -108 29q-115 0 -226 -105q-107 -104 -153 -331l-90 -457h-175z" />
<glyph unicode="s" horiz-adv-x="942" d="M33 276l151 74q43 -211 234 -211q78 0 125 41q45 42 45 111q0 39 -13 65q-14 31 -40 52q-30 21 -56 34q-24 14 -80 35q-200 90 -200 277q0 135 92 215q89 80 241 80q95 0 177 -48q81 -47 120 -124l-135 -103q-79 119 -182 119q-58 0 -98 -37q-41 -33 -41 -92 q0 -52 37 -86q24 -26 102 -68q55 -23 92 -45q28 -14 78 -53q46 -34 66 -82q20 -47 20 -106q0 -159 -104 -250q-103 -90 -269 -90q-148 0 -248 86q-99 85 -114 206z" />
<glyph unicode="t" horiz-adv-x="716" d="M59 877l29 155h178l62 309l192 109l-82 -418h260l-28 -155h-260l-107 -549q-10 -55 -10 -74q0 -115 110 -115q67 0 123 33l13 -149q-80 -39 -177 -39q-119 0 -180 61q-63 60 -63 178q0 19 14 119l105 535h-179z" />
<glyph unicode="u" horiz-adv-x="1181" d="M104 211q0 47 9 94l141 727h172l-129 -682q-8 -44 -8 -71q0 -139 137 -142q110 0 227 129q114 126 156 332l84 432h174l-201 -1030h-174l37 188q-155 -204 -367 -204h-6q-122 0 -184 59q-66 60 -66 166z" />
<glyph unicode="v" horiz-adv-x="899" d="M57 1032h174l97 -813l409 813h183l-535 -1032h-182z" />
<glyph unicode="w" horiz-adv-x="1480" d="M113 1032h176l63 -801l355 801h176l39 -801l360 801h182l-501 -1032h-168l-45 780l-351 -780h-168z" />
<glyph unicode="x" horiz-adv-x="946" d="M-74 0l441 563l-201 469h188l138 -327l258 327h200l-393 -487l219 -545h-182l-156 389l-305 -389h-207z" />
<glyph unicode="y" horiz-adv-x="954" d="M-6 -418l256 484l-166 966h182l119 -745l397 745h183l-789 -1450h-182z" />
<glyph unicode="z" horiz-adv-x="958" d="M-10 0l14 74l629 803h-465l29 155h710l-14 -74l-635 -802h508l-29 -156h-747z" />
<glyph unicode="{" horiz-adv-x="645" d="M68 639l28 154q93 0 133 34q44 38 62 129l74 373q18 96 81 150q63 57 164 57h99l-31 -158h-47q-91 0 -109 -92l-69 -368q-19 -98 -66 -140q-46 -43 -117 -61q109 -27 109 -135q0 -28 -6 -66l-72 -371q-1 -8 -2 -14.5t-1.5 -10t-0.5 -5.5q0 -32 18 -47q20 -17 64 -17h47 l-33 -153h-96q-85 0 -129 41q-43 43 -43 116q0 25 2 45l76 373q2 14 4 29.5t3 24t1 12.5q0 53 -35 77q-33 23 -108 23z" />
<glyph unicode="|" horiz-adv-x="501" d="M205 -102v1638h164v-1638h-164z" />
<glyph unicode="}" horiz-adv-x="645" d="M-66 -102l27 153h47q93 0 109 92l71 371q18 96 66 139q50 47 119 64q-111 27 -111 133q0 30 6 68l72 370q1 6 2 13.5t1.5 11.5t0.5 6q0 35 -18 47q-21 14 -62 14h-47l33 156h96q170 0 170 -158q0 -35 -4 -47l-74 -373q-2 -13 -4 -28t-3 -23.5t-1 -11.5q0 -57 35 -78 q31 -22 106 -22l-28 -156q-92 0 -135 -37q-44 -35 -62 -127l-74 -373q-19 -97 -79 -149q-64 -55 -162 -55h-97z" />
<glyph unicode="~" horiz-adv-x="1284" d="M121 657q128 174 305 177q86 0 199 -52q105 -51 178 -51q107 0 207 92l82 -112q-129 -172 -308 -172q-92 0 -194 51q-105 51 -178 51q-112 0 -207 -92l-82 110z" />
<glyph unicode="&#xa2;" horiz-adv-x="1132" d="M121 614q0 226 135 410q134 187 362 217l58 295h166l-56 -295q231 -27 295 -278l-155 -60q-49 190 -246 193q-165 0 -270 -138q-107 -138 -107 -321q0 -135 64 -215q65 -80 170 -80q102 0 172 49q74 53 139 160l143 -76q-93 -146 -188 -211q-92 -63 -223 -78l-56 -286 h-166l58 295q-136 27 -215 141q-80 112 -80 280v-2z" />
<glyph unicode="&#xa3;" horiz-adv-x="1150" d="M-18 111l2 2q69 60 112 100q44 45 97 109q52 65 75 135q27 79 27 151q0 14 -1 33t-1 25h-166l35 161h106q-8 82 -8 140q0 223 131 354q132 129 359 129q128 0 223 -80q96 -77 117 -203l-160 -61q-26 91 -78 137q-46 43 -135 43q-137 0 -211 -92q-76 -94 -76 -258 q0 -72 6 -109h346l-32 -163h-293v-41q0 -152 -58 -240q-55 -91 -178 -199q79 43 180 43q58 0 129 -41q71 -39 109 -39q57 0 96 33q38 30 115 123l117 -106q-86 -118 -168 -164q-79 -49 -183 -49q-79 0 -159 41q-77 41 -138 41q-122 0 -247 -82z" />
<glyph unicode="&#xa5;" horiz-adv-x="1148" d="M115 301l32 164h320l31 164h-320l33 164h244l-199 641h197l168 -619l415 619h205l-446 -641h237l-33 -164h-319l-31 -164h320l-33 -164h-320l-59 -301h-182l59 301h-319z" />
<glyph unicode="&#xa8;" horiz-adv-x="618" d="M119 1333h2q0 51 33 84q29 33 79 33q51 0 84 -33t33 -84q0 -49 -33 -82q-32 -32 -86 -32q-47 0 -79 32q-33 33 -33 82zM461 1333q0 51 33 84t79 33q55 0 84 -33q33 -33 33 -84q0 -49 -33 -82q-28 -32 -84 -32q-51 0 -79 32q-33 33 -33 82z" />
<glyph unicode="&#xa9;" horiz-adv-x="1843" d="M143 717q0 339 222 569q220 230 555 230t555 -230q223 -231 223 -569q0 -339 -223 -570q-221 -229 -555 -229t-555 229q-222 230 -222 570zM307 715q0 -274 170 -459q169 -184 445 -184q272 0 444 184q170 185 170 459t-170 459q-174 186 -444 186q-276 0 -445 -184 q-170 -185 -170 -459v-2zM520 713q0 217 121 329q122 113 283 113q136 0 229 -72q98 -70 125 -194l-143 -35q-53 160 -211 160q-109 0 -179 -76q-69 -69 -69 -223t69 -226q67 -73 179 -73q158 0 211 159l143 -34q-28 -128 -125 -197q-97 -72 -229 -72q-161 0 -283 113 q-121 115 -121 330v-2z" />
<glyph unicode="&#xab;" horiz-adv-x="1261" d="M72 571l26 127l647 418l-43 -219l-454 -276l348 -277l-35 -180zM543 571l26 127l648 418l-43 -219l-455 -276l348 -277l-35 -180z" />
<glyph unicode="&#xad;" horiz-adv-x="980" d="M113 573l30 152h695l-31 -152h-694z" />
<glyph unicode="&#xae;" horiz-adv-x="1843" d="M143 717q0 339 222 569q220 230 555 230t555 -230q223 -231 223 -569q0 -339 -223 -570q-221 -229 -555 -229t-555 229q-222 230 -222 570zM307 715q0 -274 170 -459q169 -184 445 -184q272 0 444 184q170 185 170 459t-170 459q-174 186 -444 186q-276 0 -445 -184 q-170 -185 -170 -459v-2zM635 279v872h311q134 0 203 -66q70 -70 70 -184q0 -92 -56 -160q-52 -63 -137 -82l260 -380h-168l-258 372h-78v-372h-147zM780 797l164 -2q125 0 125 106q0 109 -125 109h-164v-213z" />
<glyph unicode="&#xb4;" horiz-adv-x="430" d="M98 1147l199 295h252l-303 -295h-148z" />
<glyph unicode="&#xb8;" horiz-adv-x="385" d="M-123 -389l258 266h152l-228 -358z" />
<glyph unicode="&#xbb;" horiz-adv-x="1261" d="M37 164l43 219l455 276l-349 277l35 180l490 -407l-27 -127zM508 164l43 219l455 276l-349 277l35 180l490 -407l-27 -127z" />
<glyph unicode="&#x192;" horiz-adv-x="897" d="M-123 -401l64 151q56 -29 110 -29q81 0 129 48q47 47 68 147l186 963h-182l29 153h182l14 70q40 184 139 266q101 82 265 82q85 0 141 -33l-66 -149q-48 26 -110 26q-82 0 -129 -47q-47 -44 -68 -147l-14 -68h233l-28 -155h-234l-186 -961q-68 -350 -402 -350 q-88 0 -141 33z" />
<glyph unicode="&#x2c6;" horiz-adv-x="811" d="M139 1159l367 336h63l254 -336h-182l-125 164l-176 -164h-201z" />
<glyph unicode="&#x2da;" horiz-adv-x="428" d="M119 1335q0 88 57 148q59 59 146 59q86 0 145 -59q55 -61 55 -146q0 -83 -55 -141q-58 -55 -145 -55q-88 0 -146 55q-57 57 -57 141v-2zM231 1335q0 -38 25 -63q28 -25 66 -25q39 0 63 27q25 25 25 63q0 42 -25 70q-27 27 -63 27t-66 -27q-25 -28 -25 -70v-2z" />
<glyph unicode="&#x2dc;" horiz-adv-x="792" d="M133 1284q114 150 250 150q73 0 135 -41q65 -41 111 -41q78 0 149 71l84 -88q-111 -147 -248 -147q-73 0 -135 41t-108 41q-78 0 -150 -72l-84 86h-4z" />
<glyph unicode="&#x400;" horiz-adv-x="1153" d="M72 0l280 1434h811l-35 -172h-628l-80 -412h512l-33 -172h-512l-98 -506h649l-35 -172h-831zM600 1843h248l98 -295h-139z" />
<glyph unicode="&#x401;" horiz-adv-x="1153" d="M72 0l280 1434h811l-35 -172h-628l-80 -412h512l-33 -172h-512l-98 -506h649l-35 -172h-831zM498 1735h2q0 50 32 82t80 32q52 0 84 -32q33 -33 33 -82t-33 -82t-86 -33q-47 0 -80 33q-32 37 -32 82zM840 1733q0 47 32 84q37 32 80 32q52 0 84 -32q33 -33 33 -82 q0 -53 -33 -82q-29 -33 -84 -33q-47 0 -80 33q-32 28 -32 82v-2z" />
<glyph unicode="&#x402;" horiz-adv-x="1425" d="M125 1262l35 170h989l-37 -172h-401l-82 -420q149 207 387 207q113 0 182 -60q70 -61 70 -172q0 -32 -11 -100l-69 -353q-34 -177 -125 -268q-91 -85 -264 -112l-19 168q105 27 160 73q58 52 78 158l55 301q6 38 6 74q0 137 -141 137q-117 0 -233 -125 q-115 -127 -156 -330l-84 -438h-182l245 1262h-403z" />
<glyph unicode="&#x403;" horiz-adv-x="1083" d="M72 0l280 1434h842l-35 -172h-661l-246 -1262h-180zM643 1548l199 295h252l-303 -295h-148z" />
<glyph unicode="&#x404;" horiz-adv-x="1355" d="M80 561q0 160 51 309q54 158 143 283q97 135 244 213q153 84 328 84q209 0 338 -123q131 -119 155 -311l-172 -47q-53 309 -364 309q-172 0 -307 -129q-134 -125 -187 -346h676l-35 -172h-676q-8 -49 -8 -103q0 -174 86 -274q87 -100 242 -100q312 0 465 313l164 -51 q-88 -196 -258 -316q-165 -116 -383 -116q-220 0 -361 147t-141 432v-2z" />
<glyph unicode="&#x405;" horiz-adv-x="1071" d="M45 377l162 90q9 -138 76 -223q65 -86 186 -86q124 0 205 69q82 67 82 199q0 98 -51 152q-45 48 -166 110q-283 135 -283 367q0 186 119 293q116 104 303 104q122 0 207 -76q86 -74 110 -178l-153 -86q-61 168 -199 168q-94 0 -147 -53q-52 -55 -52 -146q0 -87 54 -141 q59 -55 176 -117q72 -38 112 -65q49 -34 84 -74q43 -47 60 -98q16 -59 16 -129q0 -217 -135 -340q-79 -76 -168 -107q-82 -26 -211 -26q-153 0 -270 114q-117 117 -117 279z" />
<glyph unicode="&#x406;" horiz-adv-x="606" d="M72 0l280 1434h183l-281 -1434h-182z" />
<glyph unicode="&#x407;" horiz-adv-x="606" d="M72 0l280 1434h183l-281 -1434h-182zM205 1735h2q0 49 33 82q28 32 79 32q52 0 84 -32q33 -33 33 -82t-33 -82t-86 -33q-46 0 -79 33t-33 82zM547 1733q0 51 33 84q37 32 79 32q52 0 84 -32q33 -33 33 -82q0 -53 -33 -82q-29 -33 -84 -33q-50 0 -79 33q-33 29 -33 82v-2z " />
<glyph unicode="&#x408;" horiz-adv-x="1107" d="M10 358l183 37q0 -239 202 -239q220 0 279 293l190 985h183l-205 -1055q-38 -194 -162 -295q-121 -100 -305 -100q-167 0 -264 112q-101 110 -101 262z" />
<glyph unicode="&#x409;" horiz-adv-x="1828" d="M-113 0l35 170q96 0 164 47q67 48 96 168l283 1049h649l-113 -584h287q192 0 303 -94q109 -95 109 -269q0 -232 -152 -360q-148 -127 -389 -127h-506l246 1262h-301l-233 -881q-49 -192 -166 -289q-118 -92 -312 -92zM870 170h295q153 0 250 72q94 73 94 213 q0 109 -63 166t-178 57h-297z" />
<glyph unicode="&#x40a;" horiz-adv-x="1933" d="M72 0l280 1434h183l-115 -584h504l112 584h183l-113 -584h287q190 0 301 -94q108 -94 108 -269q0 -232 -149 -360q-151 -127 -389 -127h-506l133 678h-504l-133 -678h-182zM975 170h295q153 0 250 72q94 76 94 213q0 105 -64 166q-66 57 -180 57h-297z" />
<glyph unicode="&#x40b;" horiz-adv-x="1425" d="M125 1262l33 172h989l-35 -172h-403l-84 -422q150 209 389 209q112 0 184 -60q70 -64 70 -172q0 -40 -13 -100l-139 -717h-174l131 682q6 38 6 74q0 137 -141 137q-117 0 -233 -125q-115 -127 -156 -330l-84 -438h-182l245 1262h-403z" />
<glyph unicode="&#x40c;" horiz-adv-x="1222" d="M72 0l280 1434h183l-113 -576l610 576h246l-698 -652l458 -782h-221l-422 723l-141 -723h-182zM672 1548l198 295h252l-303 -295h-147z" />
<glyph unicode="&#x40d;" horiz-adv-x="1445" d="M72 0h211l847 1116l-217 -1116h181l280 1434h-211l-850 -1121l219 1121h-180zM584 1843h247l99 -295h-139z" />
<glyph unicode="&#x40e;" horiz-adv-x="1073" d="M102 -16l265 442l-222 1008h183l166 -789l471 789h194l-874 -1450h-183zM473 1790q0 5 4 45h137q0 -3 -1 -9.5t-1 -10.5q0 -31 23 -54q18 -18 53 -18q91 0 109 92h137q-27 -107 -98 -166q-72 -57 -172 -57q-83 0 -138 49q-53 50 -53 129z" />
<glyph unicode="&#x40f;" horiz-adv-x="1437" d="M72 0l278 1434h182l-245 -1262h651l246 1262h182l-279 -1434h-417l-52 -254h-180l51 254h-417z" />
<glyph unicode="&#x410;" horiz-adv-x="1175" d="M-117 0l762 1434h174l217 -1434h-182l-51 383h-535l-202 -383h-183zM358 555h420l-92 645z" />
<glyph unicode="&#x411;" d="M72 0l280 1434h797l-33 -172h-616l-80 -412h287q190 0 301 -94q108 -94 108 -269q0 -235 -149 -360q-151 -127 -389 -127h-506zM289 170h295q153 0 250 72q94 76 94 213q0 105 -64 166q-66 57 -180 57h-297z" />
<glyph unicode="&#x412;" d="M72 0l280 1432h455q173 0 264 -82q90 -81 90 -238q0 -120 -61 -205q-65 -83 -166 -129q77 -35 131 -106q51 -71 51 -185q0 -235 -149 -360q-151 -127 -389 -127h-506zM289 170h295q157 0 250 72q94 72 94 211q0 107 -64 165t-180 58h-297zM418 848l287 -2q112 0 192 59 t80 172q0 180 -197 183h-282z" />
<glyph unicode="&#x413;" horiz-adv-x="1083" d="M72 0l280 1434h842l-35 -172h-661l-246 -1262h-180z" />
<glyph unicode="&#x414;" horiz-adv-x="1392" d="M-63 -254l53 426h114l457 1262h760l-246 -1262h129l-102 -426h-172l45 254h-821l-48 -254h-169zM293 172h600l213 1090h-424z" />
<glyph unicode="&#x415;" horiz-adv-x="1153" d="M72 0l280 1434h811l-35 -172h-628l-80 -412h512l-33 -172h-512l-98 -506h649l-35 -172h-831z" />
<glyph unicode="&#x416;" horiz-adv-x="1734" d="M-225 0l782 791l-455 643h230l420 -574l112 574h183l-113 -576l610 576h246l-698 -652l458 -782h-221l-422 723l-141 -723h-182l141 721l-723 -721h-227z" />
<glyph unicode="&#x417;" horiz-adv-x="1110" d="M18 389l172 25v-15q0 -110 68 -184q69 -72 186 -72q297 0 297 357q0 122 -61 186q-66 66 -172 66q-72 0 -133 -27l-53 96l387 447h-498l31 164h780l-10 -56l-457 -493q24 6 53 6q152 0 234 -101q84 -101 84 -284q0 -232 -133 -377q-134 -143 -367 -143q-180 0 -293 116 t-113 277z" />
<glyph unicode="&#x418;" horiz-adv-x="1445" d="M72 0l280 1434h180l-219 -1121l850 1121h211l-280 -1434h-181l217 1116l-847 -1116h-211z" />
<glyph unicode="&#x419;" horiz-adv-x="1445" d="M72 0h211l847 1116l-217 -1116h181l280 1434h-211l-850 -1121l219 1121h-180zM678 1790q0 25 4 45h135q0 -3 -1 -9.5t-1 -10.5q0 -31 23 -54q21 -18 53 -18q90 0 108 92h138q-26 -106 -99 -166q-72 -57 -172 -57q-83 0 -135 49q-53 50 -53 129z" />
<glyph unicode="&#x41a;" horiz-adv-x="1222" d="M72 0l280 1434h183l-113 -576l610 576h246l-698 -652l458 -782h-221l-422 723l-141 -723h-182z" />
<glyph unicode="&#x41b;" horiz-adv-x="1329" d="M-113 0l33 172q101 0 166 47q65 49 94 168l283 1049h792l-278 -1436h-180l243 1264h-446l-234 -881q-50 -195 -163 -289t-310 -94z" />
<glyph unicode="&#x41c;" horiz-adv-x="1617" d="M72 0l280 1434h213l189 -1010l571 1010h221l-280 -1434h-183l205 1044l-520 -913h-135l-174 913l-205 -1044h-182z" />
<glyph unicode="&#x41d;" horiz-adv-x="1423" d="M72 0l280 1434h183l-115 -586h635l114 586h183l-281 -1434h-182l133 676h-635l-133 -676h-182z" />
<glyph unicode="&#x41e;" horiz-adv-x="1460" d="M80 561q0 450 309 713q201 174 479 174q225 0 367 -154q141 -153 141 -426q0 -450 -309 -710q-201 -174 -479 -174q-226 0 -367 153q-141 156 -141 426v-2zM268 578q0 -202 88 -316q86 -108 258 -108q216 0 371 168q203 212 203 530q0 203 -90 313q-88 111 -258 111 q-216 0 -371 -168q-201 -213 -201 -530z" />
<glyph unicode="&#x41f;" horiz-adv-x="1431" d="M72 0l280 1434h1008l-281 -1434h-182l246 1262h-643l-246 -1262h-182z" />
<glyph unicode="&#x420;" horiz-adv-x="1196" d="M72 0l278 1434h459q172 0 278 -95q107 -93 107 -245q0 -235 -143 -357q-141 -123 -385 -123h-291l-121 -614h-182zM406 784h313q124 0 205 72q77 71 77 203q0 93 -51 147q-53 56 -153 56h-299z" />
<glyph unicode="&#x421;" horiz-adv-x="1355" d="M80 557l4 -2q0 229 92 430q91 202 277 332q183 131 426 131q201 0 325 -127q125 -128 137 -307l-174 -47q-50 309 -323 309q-178 0 -316 -107q-135 -105 -196 -260q-64 -155 -64 -334q0 -203 90 -313q88 -108 265 -108q142 0 243 73q105 74 193 242l160 -51 q-198 -434 -619 -434q-234 0 -377 149t-143 424z" />
<glyph unicode="&#x422;" horiz-adv-x="1038" d="M125 1262l35 172h989l-35 -172h-403l-246 -1262h-182l245 1262h-403z" />
<glyph unicode="&#x423;" horiz-adv-x="1073" d="M102 -16l265 442l-222 1008h183l166 -789l471 789h194l-874 -1450h-183z" />
<glyph unicode="&#x424;" horiz-adv-x="1642" d="M104 635q0 262 205 455q206 194 502 194h16l29 148h182l-28 -148h10q213 0 350 -131t137 -356q0 -265 -204 -457q-204 -195 -498 -195h-19l-26 -145h-185l29 145h-8q-212 0 -352 134q-138 132 -138 358zM297 662q0 -163 84 -256q82 -91 235 -91h23l154 795h-23 q-201 0 -336 -135q-137 -134 -137 -311v-2zM821 315h21q200 0 338 138q137 134 137 311q0 165 -82 256q-84 90 -240 90h-20z" />
<glyph unicode="&#x425;" horiz-adv-x="1087" d="M-111 0l596 786l-241 648h192l176 -480l363 480h201l-498 -658l291 -776h-189l-229 608l-455 -608h-207z" />
<glyph unicode="&#x426;" horiz-adv-x="1429" d="M72 0l278 1434h182l-245 -1262h643l246 1262h182l-246 -1262h139l-108 -426h-172l51 254h-950z" />
<glyph unicode="&#x427;" horiz-adv-x="1341" d="M180 745q0 73 15 146l106 543h180l-106 -539q-13 -70 -13 -115q0 -209 246 -209q182 0 338 150l139 713h185l-283 -1434h-180l98 512q-182 -113 -356 -113q-172 0 -273 90q-96 93 -96 259v-3z" />
<glyph unicode="&#x428;" horiz-adv-x="2017" d="M72 0l280 1434h183l-246 -1262h524l246 1262h182l-246 -1262h525l245 1262h181l-281 -1434h-1593z" />
<glyph unicode="&#x429;" horiz-adv-x="2017" d="M72 0l280 1434h183l-246 -1262h524l246 1262h180l-244 -1262h525l245 1262h181l-248 -1262h139l-108 -426h-173l52 254h-1536z" />
<glyph unicode="&#x42a;" d="M57 1262l35 172h440l-112 -584h287q190 0 301 -94q108 -94 108 -269q0 -235 -149 -360q-151 -127 -389 -127h-506l247 1262h-262zM289 170h295q153 0 250 72q94 76 94 213q0 105 -64 166q-66 57 -180 57h-297z" />
<glyph unicode="&#x42b;" horiz-adv-x="1824" d="M72 0l280 1434h180l-112 -584h287q190 0 301 -94q108 -94 108 -269q0 -235 -149 -360q-151 -127 -389 -127h-506zM289 170h295q153 0 250 72q94 76 94 213q0 105 -64 166q-66 57 -180 57h-297zM1296 -2l281 1450h174l-281 -1450h-174z" />
<glyph unicode="&#x42c;" d="M72 0l280 1434h180l-112 -584h287q190 0 301 -94q108 -94 108 -269q0 -235 -149 -360q-151 -127 -389 -127h-506zM289 170h295q153 0 250 72q94 76 94 213q0 105 -64 166q-66 57 -180 57h-297z" />
<glyph unicode="&#x42d;" horiz-adv-x="1396" d="M61 420l172 49q40 -313 342 -313q187 0 316 120q130 124 188 355h-676l35 172h676q8 74 8 96q0 379 -327 379q-312 0 -465 -313l-164 51q87 193 262 315q171 119 389 119q226 0 361 -150q133 -151 133 -419q0 -222 -86 -426q-85 -200 -258 -336q-174 -133 -396 -133 q-226 0 -356 118q-133 121 -154 316z" />
<glyph unicode="&#x42e;" horiz-adv-x="2084" d="M72 0l278 1432h185l-123 -631h303q69 289 282 473q201 174 484 174q222 0 364 -154t142 -426q0 -449 -310 -710q-201 -174 -481 -174q-224 0 -365 153q-141 156 -141 426q0 54 2 68h-313l-125 -631h-182zM879 578q0 -206 88 -316q86 -108 258 -108q215 0 370 168 q201 213 201 530q0 203 -90 313q-86 111 -256 111q-215 0 -373 -168q-198 -210 -198 -530z" />
<glyph unicode="&#x42f;" horiz-adv-x="1284" d="M-94 0l563 686q-101 33 -170 111q-68 77 -68 194q0 205 146 324q140 119 358 119h477l-280 -1434h-180l133 676h-215l-545 -676h-219zM420 1016q0 -83 53 -127q49 -41 143 -41h302l79 414h-301q-125 -3 -200 -72q-74 -68 -74 -174h-2z" />
<glyph unicode="&#x430;" horiz-adv-x="1200" d="M55 403l2 -2q0 270 148 459q145 189 409 189q100 0 179 -45q77 -44 98 -97l20 123h174l-196 -1030h-174l22 127q-128 -143 -305 -143q-186 0 -280 116q-97 115 -97 303zM240 451q0 -147 63 -228q66 -84 180 -84q117 0 201 78q86 80 121 186q35 110 35 220q0 125 -62 196 q-62 74 -176 74q-174 0 -268 -135q-94 -134 -94 -307z" />
<glyph unicode="&#x431;" horiz-adv-x="1191" d="M55 481q0 158 41 324q41 159 121 305q83 141 221 233q145 91 316 91h96q68 0 104 20q39 22 66 74h110q-34 -252 -299 -252h-94q-156 0 -276 -105t-154 -268q159 144 373 144q183 0 281 -125q100 -127 100 -342q0 -230 -172 -414q-170 -182 -408 -182q-178 0 -303 125 q-123 126 -123 374v-2zM221 449q0 -143 76 -228q75 -84 201 -84q157 0 270 131q113 134 113 299q0 147 -66 238q-65 86 -190 86q-171 0 -289 -133q-115 -133 -115 -309z" />
<glyph unicode="&#x432;" horiz-adv-x="1056" d="M61 0l197 1032h383q130 0 201 -59q69 -60 69 -164q0 -159 -159 -244q115 -71 112 -217q0 -154 -110 -252q-113 -96 -285 -96h-408zM260 156h217q93 0 150 45q59 47 59 127q0 143 -145 143h-219zM350 627h219q74 0 117 37q45 36 45 96q0 117 -121 117h-211z" />
<glyph unicode="&#x433;" horiz-adv-x="903" d="M61 0l199 1032h647l-28 -155h-476l-170 -877h-172z" />
<glyph unicode="&#x434;" horiz-adv-x="1181" d="M-76 -233l43 389h70l315 876h705l-172 -876h71l-100 -389h-151l47 233h-635l-43 -233h-150zM201 156h512l141 721h-401z" />
<glyph unicode="&#x435;" horiz-adv-x="1150" d="M49 414q0 245 172 438q174 192 426 192q178 0 279 -104q102 -105 102 -281q0 -36 -10 -104l-17 -80h-763q-7 -47 -7 -72q0 -123 62 -194q63 -72 178 -72q113 0 184 51q77 52 140 154l147 -74q-104 -152 -219 -219q-113 -65 -281 -65q-181 0 -284 118q-107 119 -107 316z M279 631h567q0 258 -230 258q-112 0 -202 -72q-92 -74 -135 -186z" />
<glyph unicode="&#x436;" horiz-adv-x="1429" d="M-190 0l577 559l-352 473h209l323 -432l84 432h174l-84 -432l443 432h235l-510 -483l351 -549h-211l-324 518l-100 -518h-174l100 516l-512 -516h-229z" />
<glyph unicode="&#x437;" horiz-adv-x="854" d="M10 283l168 16q0 -72 45 -117q47 -47 121 -47q86 0 145 62q62 59 62 153q0 72 -39 117q-40 43 -109 43q-45 0 -84 -16l-63 106l248 274h-332l33 156h590l-13 -57l-319 -338q10 2 37 2q96 0 157 -70q60 -69 60 -188q0 -164 -117 -281q-114 -114 -283 -114q-144 0 -227 86 q-80 86 -80 213z" />
<glyph unicode="&#x438;" horiz-adv-x="1202" d="M61 0l199 1032h172l-147 -762l610 762h188l-198 -1032h-172l147 762l-610 -762h-189z" />
<glyph unicode="&#x439;" horiz-adv-x="1202" d="M61 0l199 1032h172l-147 -762l610 762h188l-198 -1032h-172l147 762l-610 -762h-189zM502 1389q0 25 4 45h135q0 -2 -1 -10t-1 -13q0 -31 23 -51q22 -19 53 -19q90 0 108 93h138q-27 -104 -99 -164q-75 -60 -172 -60q-82 0 -135 50t-53 129z" />
<glyph unicode="&#x43a;" horiz-adv-x="1040" d="M61 0l201 1032h174l-84 -432l443 432h235l-510 -483l350 -549h-211l-323 518l-100 -518h-175z" />
<glyph unicode="&#x43b;" horiz-adv-x="1249" d="M-14 0l26 158q106 0 158 41q50 39 86 145l201 688h673l-196 -1032h-172l170 879h-357l-178 -596q-44 -151 -143 -217q-104 -66 -268 -66z" />
<glyph unicode="&#x43c;" horiz-adv-x="1333" d="M61 0l199 1032h209l137 -680l393 680h215l-198 -1032h-172l139 721l-358 -627h-115l-137 627l-140 -721h-172z" />
<glyph unicode="&#x43d;" horiz-adv-x="1165" d="M61 0l199 1032h172l-78 -405h443l77 405h173l-199 -1032h-172l90 471h-442l-91 -471h-172z" />
<glyph unicode="&#x43e;" horiz-adv-x="1173" d="M55 418v2q0 252 144 430q160 201 436 201q187 0 299 -115q106 -115 106 -322q0 -255 -141 -430q-160 -201 -434 -198q-192 0 -301 112t-109 320zM238 444q0 -148 61 -223q64 -80 178 -80q171 0 289 148q92 118 92 305q0 142 -61 221q-62 80 -181 80q-172 0 -284 -145 q-92 -118 -92 -306h-2z" />
<glyph unicode="&#x43f;" horiz-adv-x="1157" d="M61 0l199 1032h778l-198 -1032h-172l170 877h-435l-170 -877h-172z" />
<glyph unicode="&#x440;" horiz-adv-x="1239" d="M-20 -418l280 1448h174l-26 -127q58 67 143 107q89 39 180 39q177 0 275 -107q100 -109 100 -291q0 -273 -154 -471q-153 -196 -409 -196q-193 0 -285 139l-104 -541h-174zM307 403q0 -129 64 -196q61 -70 184 -70q117 0 205 76q85 76 125 180q37 104 37 211 q0 132 -62 209q-62 80 -176 80q-118 0 -209 -82q-88 -79 -129 -188q-39 -101 -39 -217v-3z" />
<glyph unicode="&#x441;" horiz-adv-x="1105" d="M55 416l2 -4q0 246 158 442q161 193 430 193q300 0 371 -287l-156 -62q-53 193 -246 193q-165 0 -270 -135q-104 -137 -104 -326q0 -136 61 -215q62 -80 168 -80q99 0 172 51q72 52 137 160l148 -76q-109 -164 -215 -225q-107 -61 -273 -61q-175 0 -278 118 q-105 117 -105 314z" />
<glyph unicode="&#x442;" horiz-adv-x="880" d="M100 877l29 155h725l-29 -155h-276l-170 -877h-172l170 877h-277z" />
<glyph unicode="&#x443;" horiz-adv-x="954" d="M-6 -418l256 484l-166 966h182l119 -745l397 745h183l-789 -1450h-182z" />
<glyph unicode="&#x444;" horiz-adv-x="1447" d="M53 442q0 249 180 426q184 178 467 181l74 385h172l-74 -385q200 0 322 -125q121 -121 121 -332q0 -254 -180 -428q-177 -174 -465 -180l-78 -402h-172l78 402q-200 0 -322 125q-121 124 -121 333h-2zM231 459q0 -155 74 -238q76 -82 205 -82h14l148 754h-19 q-187 0 -303 -125q-119 -128 -119 -309zM696 139h19q184 0 303 125t119 309q0 155 -74 238q-76 82 -205 82h-14z" />
<glyph unicode="&#x445;" horiz-adv-x="946" d="M-74 0l441 563l-201 469h188l138 -327l258 327h200l-393 -487l219 -545h-182l-156 389l-305 -389h-207z" />
<glyph unicode="&#x446;" horiz-adv-x="1165" d="M61 0l201 1032h172l-172 -876h440l172 876h173l-173 -876h70l-113 -389h-137l47 233h-680z" />
<glyph unicode="&#x447;" horiz-adv-x="1097" d="M68 434q0 44 10 90l94 506h172l-90 -487q-8 -44 -8 -64q0 -70 37 -104q35 -35 98 -35q160 0 334 213l92 477h172l-201 -1030h-172l70 346q-165 -160 -346 -160q-121 0 -191 70q-69 66 -69 180z" />
<glyph unicode="&#x448;" horiz-adv-x="1681" d="M61 0l199 1032h172l-170 -876h393l170 876h172l-170 -876h394l170 876h172l-199 -1032h-1303z" />
<glyph unicode="&#x449;" horiz-adv-x="1683" d="M61 0l201 1032h172l-172 -876h393l172 876h172l-172 -876h394l172 876h172l-172 -876h69l-112 -389h-138l48 233h-1199z" />
<glyph unicode="&#x44a;" horiz-adv-x="1007" d="M55 877l29 153h348l-76 -391h217q137 0 224 -72q84 -72 84 -200q0 -161 -119 -265q-120 -102 -297 -102h-404l170 877h-176zM262 156l189 -2q251 0 251 192q0 59 -45 98q-46 37 -127 37h-204z" />
<glyph unicode="&#x44b;" horiz-adv-x="1490" d="M61 0l199 1030h172l-76 -391h217q137 0 224 -72q84 -72 84 -200q0 -161 -119 -265q-120 -102 -297 -102h-404zM262 156l189 -2q251 0 251 192q0 59 -45 98q-46 37 -127 37h-204zM997 -2l201 1032h174l-201 -1032h-174z" />
<glyph unicode="&#x44c;" horiz-adv-x="1007" d="M61 0l199 1030h172l-76 -391h217q137 0 224 -72q84 -72 84 -200q0 -161 -119 -265q-120 -102 -297 -102h-404zM262 156l189 -2q251 0 251 192q0 59 -45 98q-46 37 -127 37h-204z" />
<glyph unicode="&#x44d;" horiz-adv-x="1157" d="M59 262l144 66q24 -87 96 -140q66 -51 164 -51q129 0 221 80t129 219h-489l30 156h490q0 10 2 18v19q0 116 -62 190q-63 72 -186 72q-96 0 -176 -51q-82 -52 -139 -146l-133 82q84 128 206 199q127 74 275 74q189 0 291 -123t102 -330q0 -236 -164 -424t-418 -188 q-152 0 -247 77q-99 76 -136 201z" />
<glyph unicode="&#x44e;" horiz-adv-x="1650" d="M72 0l198 1032h172l-84 -436h193q29 131 123 254q165 201 436 201q190 0 299 -115q111 -117 111 -322q0 -254 -144 -430q-160 -201 -436 -198q-190 0 -299 112t-109 320v20h-204l-84 -438h-172zM715 442q0 -142 61 -221q62 -80 180 -80q171 0 287 146q92 118 92 305 q0 148 -59 221q-63 82 -180 82q-171 0 -289 -145q-92 -121 -92 -308z" />
<glyph unicode="&#x44f;" horiz-adv-x="1026" d="M-53 0l350 477q-152 68 -152 230q0 141 109 233t264 92h375l-199 -1032h-172l88 463h-145l-336 -463h-182zM311 731q0 -53 39 -84q40 -29 99 -29h192l51 259h-192q-81 0 -133 -37q-56 -41 -56 -109z" />
<glyph unicode="&#x450;" horiz-adv-x="1150" d="M49 414q0 245 172 438q174 192 426 192q178 0 279 -104q102 -105 102 -281q0 -36 -10 -104l-17 -80h-763q-7 -47 -7 -72q0 -123 62 -194q63 -72 178 -72q113 0 184 51q77 52 140 154l147 -74q-104 -152 -219 -219q-113 -65 -281 -65q-181 0 -284 118q-107 119 -107 316z M279 631h567q0 258 -230 258q-112 0 -202 -72q-92 -74 -135 -186zM459 1438h248l98 -295h-139z" />
<glyph unicode="&#x451;" horiz-adv-x="1150" d="M49 414q0 245 172 438q174 192 426 192q178 0 279 -104q102 -105 102 -281q0 -36 -10 -104l-17 -80h-763q-7 -47 -7 -72q0 -123 62 -194q63 -72 178 -72q113 0 184 51q77 52 140 154l147 -74q-104 -152 -219 -219q-113 -65 -281 -65q-181 0 -284 118q-107 119 -107 316z M279 631h567q0 258 -230 258q-112 0 -202 -72q-92 -74 -135 -186zM403 1329q0 46 33 84q35 35 80 35q54 0 84 -35q35 -35 35 -84q0 -47 -35 -82q-29 -33 -84 -33q-47 0 -80 33q-33 38 -33 82zM743 1329q0 51 33 84q38 35 82 35q49 0 84 -35q33 -33 33 -84q0 -49 -33 -82 t-84 -33q-46 0 -82 33q-33 33 -33 82z" />
<glyph unicode="&#x452;" horiz-adv-x="1196" d="M61 0l226 1169h-148l31 142h141l31 139h172l-29 -139h263l-29 -142h-258l-66 -329q153 209 389 209q117 0 185 -62q69 -57 69 -170q0 -37 -10 -102l-149 -770q-35 -180 -125 -267q-91 -88 -265 -112l-16 168q100 23 160 73q55 46 76 154l137 721q6 38 6 74 q0 137 -141 137q-117 0 -236 -125q-119 -131 -156 -330l-83 -438h-175z" />
<glyph unicode="&#x453;" horiz-adv-x="903" d="M61 0l199 1032h647l-28 -155h-476l-170 -877h-172zM461 1147l198 295h252l-303 -295h-147z" />
<glyph unicode="&#x454;" horiz-adv-x="1122" d="M53 410q0 249 162 444q165 195 414 195q159 0 262 -74q99 -71 137 -199l-149 -71q-26 87 -95 137q-70 51 -161 51q-132 0 -226 -82q-90 -81 -135 -217h490l-31 -158h-490q-2 -6 -2 -33q0 -118 66 -190q70 -76 182 -76q92 0 180 51q88 54 146 142l129 -76 q-182 -270 -463 -270q-191 0 -303 118q-111 120 -111 310z" />
<glyph unicode="&#x455;" horiz-adv-x="942" d="M33 276l151 74q43 -211 234 -211q78 0 125 41q45 42 45 111q0 39 -13 65q-14 31 -40 52q-30 21 -56 34q-24 14 -80 35q-200 90 -200 277q0 135 92 215q89 80 241 80q95 0 177 -48q81 -47 120 -124l-135 -103q-79 119 -182 119q-58 0 -98 -37q-41 -33 -41 -92 q0 -52 37 -86q24 -26 102 -68q55 -23 92 -45q28 -14 78 -53q46 -34 66 -82q20 -47 20 -106q0 -159 -104 -250q-103 -90 -269 -90q-148 0 -248 86q-99 85 -114 206z" />
<glyph unicode="&#x456;" horiz-adv-x="565" d="M61 0l201 1032h174l-200 -1032h-175zM270 1319q0 55 37 92q36 39 92 39q60 0 93 -39q36 -36 36 -92q0 -54 -36 -90q-34 -37 -93 -37q-55 0 -92 37t-37 90z" />
<glyph unicode="&#x457;" horiz-adv-x="565" d="M61 0l201 1032h174l-200 -1032h-175zM111 1333q0 47 32 84q33 33 80 33q55 0 84 -33q35 -35 35 -84q0 -47 -35 -82q-28 -32 -84 -32q-48 0 -80 32q-32 37 -32 82zM451 1333q0 47 32 84q33 33 80 33q55 0 84 -33q35 -35 35 -84q0 -47 -35 -82q-28 -32 -84 -32 q-48 0 -80 32q-32 37 -32 82z" />
<glyph unicode="&#x458;" horiz-adv-x="565" d="M-180 -266h2q100 23 160 73q55 46 73 154l207 1069h174l-211 -1083q-34 -181 -125 -269q-95 -88 -264 -112zM272 1319q0 55 37 92q39 39 92 39q54 0 93 -39q36 -36 36 -92q0 -54 -36 -90q-34 -37 -93 -37q-58 0 -92 37q-37 37 -37 90z" />
<glyph unicode="&#x459;" horiz-adv-x="1607" d="M-14 0l26 156q106 0 158 43q56 41 86 145l201 688h577l-76 -393h218q141 0 223 -70q82 -73 82 -200q0 -163 -117 -265q-119 -104 -297 -104h-403l167 879h-256l-178 -596q-43 -149 -143 -217q-104 -66 -268 -66zM862 156h189q252 0 252 190q0 63 -46 100q-43 37 -127 37 h-202z" />
<glyph unicode="&#x45a;" horiz-adv-x="1622" d="M61 0l199 1030h172l-76 -391h445l73 391h175l-76 -391h217q137 0 221 -72q82 -70 82 -200q0 -160 -117 -265q-120 -102 -297 -102h-403l92 483h-442l-93 -483h-172zM879 156l188 -2q252 0 252 192q0 59 -45 98q-46 37 -127 37h-207z" />
<glyph unicode="&#x45b;" horiz-adv-x="1196" d="M61 0l226 1171h-148l31 140h141l31 139h172l-29 -139h263l-29 -140h-258l-66 -331q153 209 389 209q116 0 185 -60t69 -172q0 -38 -10 -100l-139 -717h-174l131 682q6 38 6 74q0 137 -141 137q-117 0 -236 -125q-119 -131 -156 -330l-83 -438h-175z" />
<glyph unicode="&#x45c;" horiz-adv-x="1040" d="M61 0l201 1032h174l-84 -432l443 432h235l-510 -483l350 -549h-211l-323 518l-100 -518h-175zM496 1147l198 295h252l-303 -295h-147z" />
<glyph unicode="&#x45d;" horiz-adv-x="1212" d="M61 0l199 1032h172l-147 -762l610 762h188l-198 -1032h-172l147 762l-610 -762h-189zM436 1442h248l98 -295h-139z" />
<glyph unicode="&#x45e;" horiz-adv-x="954" d="M-6 -418l256 484l-166 966h182l119 -745l397 745h183l-789 -1450h-182zM342 1389q0 25 2 45h137q0 -2 -1 -10t-1 -13q0 -31 23 -51q19 -19 53 -19q91 0 109 93h137q-27 -104 -99 -164q-75 -60 -172 -60q-82 0 -135 50t-53 129z" />
<glyph unicode="&#x45f;" horiz-adv-x="1181" d="M61 0l201 1032h172l-172 -876h447l172 876h172l-201 -1032h-309l-47 -233h-172l47 233h-310z" />
<glyph unicode="&#x2000;" horiz-adv-x="924" />
<glyph unicode="&#x2001;" horiz-adv-x="1849" />
<glyph unicode="&#x2002;" horiz-adv-x="924" />
<glyph unicode="&#x2003;" horiz-adv-x="1849" />
<glyph unicode="&#x2004;" horiz-adv-x="616" />
<glyph unicode="&#x2005;" horiz-adv-x="462" />
<glyph unicode="&#x2006;" horiz-adv-x="308" />
<glyph unicode="&#x2007;" horiz-adv-x="308" />
<glyph unicode="&#x2008;" horiz-adv-x="231" />
<glyph unicode="&#x2009;" horiz-adv-x="369" />
<glyph unicode="&#x200a;" horiz-adv-x="102" />
<glyph unicode="&#x2010;" horiz-adv-x="980" d="M113 573l30 152h695l-31 -152h-694z" />
<glyph unicode="&#x2011;" horiz-adv-x="980" d="M113 573l30 152h695l-31 -152h-694z" />
<glyph unicode="&#x2012;" horiz-adv-x="980" d="M113 573l30 152h695l-31 -152h-694z" />
<glyph unicode="&#x2013;" horiz-adv-x="1116" d="M113 573l30 152h844l-31 -152h-843z" />
<glyph unicode="&#x2014;" horiz-adv-x="1507" d="M113 573l30 152h1235l-30 -152h-1235z" />
<glyph unicode="&#x2018;" horiz-adv-x="495" d="M145 1450h244l60 -420h-125z" />
<glyph unicode="&#x2019;" horiz-adv-x="497" d="M156 1030l211 420h256l-336 -420h-131z" />
<glyph unicode="&#x201a;" horiz-adv-x="671" d="M-10 -29l211 420h256l-336 -420h-131z" />
<glyph unicode="&#x201c;" horiz-adv-x="843" d="M145 1450h244l60 -420h-125zM494 1450h243l60 -420h-125z" />
<glyph unicode="&#x201d;" horiz-adv-x="866" d="M156 1030l211 420h256l-336 -420h-131zM524 1030l211 420h256l-336 -420h-131z" />
<glyph unicode="&#x201e;" horiz-adv-x="1040" d="M-10 -29l211 420h256l-336 -420h-131zM358 -29l211 420h256l-336 -420h-131z" />
<glyph unicode="&#x2022;" horiz-adv-x="657" d="M154 674q0 65 47 112q48 48 110 48q65 0 113 -48q45 -45 45 -110q0 -68 -45 -113q-47 -47 -113 -47q-63 0 -110 47t-47 113v-2z" />
<glyph unicode="&#x2026;" horiz-adv-x="1648" d="M51 121q0 53 37 90q39 39 92 39q51 0 90 -39q39 -36 39 -90q0 -56 -39 -92q-34 -37 -90 -37q-58 0 -92 37q-37 37 -37 92zM594 121q0 53 37 90q39 39 94 39q49 0 88 -39q39 -36 39 -90q0 -56 -39 -92q-34 -37 -88 -37q-60 0 -94 37q-37 37 -37 92zM1137 121h2q0 53 37 90 q36 39 92 39q48 0 90 -39q37 -37 37 -90q0 -55 -37 -92t-90 -37q-60 0 -94 37q-37 37 -37 92z" />
<glyph unicode="&#x202f;" horiz-adv-x="369" />
<glyph unicode="&#x2039;" horiz-adv-x="790" d="M72 571l26 127l647 418l-43 -219l-454 -276l348 -277l-35 -180z" />
<glyph unicode="&#x203a;" horiz-adv-x="790" d="M37 164l43 219l455 276l-349 277l35 180l490 -407l-27 -127z" />
<glyph unicode="&#x205f;" horiz-adv-x="462" />
<glyph unicode="&#x20ac;" horiz-adv-x="1234" d="M20 477l111 164h102l31 152h-182l113 163h114q176 494 621 494q136 0 227 -61t129 -170l-151 -76q-61 143 -238 143q-286 0 -414 -330h484l-113 -161h-418l-30 -154h499l-112 -164h-402q0 -330 293 -330q85 0 150 35q65 40 129 115l129 -80q-166 -233 -441 -233 q-200 0 -317 129t-117 364h-197z" />
<glyph unicode="&#x2122;" horiz-adv-x="1675" d="M166 1313l22 121h578l-23 -121h-215l-135 -699h-147l135 699h-215zM758 614l157 820h154l109 -529l315 529h160l-158 -820h-147l98 512l-262 -436h-86l-92 443l-101 -519h-147z" />
<glyph unicode="&#x25fc;" horiz-adv-x="1034" d="M0 0v1034h1034v-1034h-1034z" />
</font>
</defs>
</svg>
