<?xml version="1.0" encoding="iso-8859-1"?>
<!-- Generator: Adobe Illustrator 18.1.1, SVG Export Plug-In . SVG Version: 6.00 Build 0)  -->
<svg xmlns="http://www.w3.org/2000/svg" xmlns:xlink="http://www.w3.org/1999/xlink" version="1.1" id="Capa_1" x="0px" y="0px"  viewBox="0 0 612.069 612.069" style="enable-background:new 0 0 612.069 612.069;" xml:space="preserve" width="60" height="60">
<g>
	<path d="M562.401,96.695H49.668C22.227,96.695,0,118.922,0,146.363v54.813v68.191v196.339c0,27.441,22.227,49.668,49.668,49.668   h512.733c27.441,0,49.668-22.227,49.668-49.668V269.298v-68.191v-54.813C612,118.922,589.773,96.695,562.401,96.695z    M49.668,124.067h512.733c11.868,0,22.227,9.604,22.227,22.227v41.504H27.441v-41.504   C27.441,134.495,37.114,124.067,49.668,124.067z M584.628,255.234H27.441v-40.75h557.187L584.628,255.234L584.628,255.234z    M562.401,487.864H49.668c-11.868,0-22.227-9.604-22.227-22.227V282.675h557.187v182.276   C584.628,477.505,574.955,487.864,562.401,487.864z M520.896,356.011c0,7.409-5.9,13.309-13.309,13.309H365.307   c-7.409,0-13.309-5.9-13.309-13.309c0-7.409,5.9-13.309,13.309-13.309h141.526C514.242,341.948,520.896,347.847,520.896,356.011z    M520.896,428.592c0,7.409-5.9,13.309-13.309,13.309h-81.499c-7.409,0-13.309-5.9-13.309-13.309c0-7.409,5.9-13.309,13.309-13.309   h81.499C514.242,415.283,520.896,421.183,520.896,428.592z" fill="#bbb"/>
</g>
<g>
</g>
<g>
</g>
<g>
</g>
<g>
</g>
<g>
</g>
<g>
</g>
<g>
</g>
<g>
</g>
<g>
</g>
<g>
</g>
<g>
</g>
<g>
</g>
<g>
</g>
<g>
</g>
<g>
</g>
</svg>
